<svg xmlns="http://www.w3.org/2000/svg" xmlns:xlink="http://www.w3.org/1999/xlink" width="400" zoomAndPan="magnify" viewBox="0 0 300 299.999988" height="400" preserveAspectRatio="xMidYMid meet" version="1.0"><defs><clipPath id="469eff9573"><path d="M 185 65 L 230 65 L 230 276.75 L 185 276.75 Z M 185 65 " clip-rule="nonzero"/></clipPath><clipPath id="2b4fe82dd2"><path d="M 184 64 L 230 64 L 230 276.75 L 184 276.75 Z M 184 64 " clip-rule="nonzero"/></clipPath><clipPath id="27b806b082"><path d="M 75 241 L 214 241 L 214 276.75 L 75 276.75 Z M 75 241 " clip-rule="nonzero"/></clipPath><clipPath id="eca1e9951b"><path d="M 75 64 L 214 64 L 214 276.75 L 75 276.75 Z M 75 64 " clip-rule="nonzero"/></clipPath></defs><rect x="-30" width="360" fill="#ffffff" y="-29.999999" height="359.999986" fill-opacity="1"/><rect x="-30" width="360" fill="#ffffff" y="-29.999999" height="359.999986" fill-opacity="1"/><path fill="#ffffff" d="M 214.097656 99.789062 L 214.097656 33.882812 C 214.097656 32.015625 215.613281 30.5 217.480469 30.5 L 270.125 30.5 C 271.996094 30.5 273.507812 32.015625 273.507812 33.882812 L 273.507812 99.789062 L 267.574219 93.851562 L 261.625 99.789062 L 255.6875 93.851562 L 249.753906 99.789062 L 243.804688 93.851562 L 237.867188 99.789062 L 231.917969 93.851562 L 225.984375 99.789062 L 220.050781 93.851562 Z M 214.097656 99.789062 " fill-opacity="1" fill-rule="nonzero"/><path fill="#2e186b" d="M 273.507812 100.273438 C 273.382812 100.273438 273.257812 100.222656 273.164062 100.132812 L 267.574219 94.539062 L 261.964844 100.132812 C 261.777344 100.320312 261.46875 100.320312 261.28125 100.132812 L 255.6875 94.539062 L 250.097656 100.132812 C 249.90625 100.320312 249.601562 100.320312 249.410156 100.132812 L 243.804688 94.539062 L 238.210938 100.132812 C 238.023438 100.320312 237.714844 100.320312 237.527344 100.132812 L 234.328125 96.941406 C 234.136719 96.75 234.136719 96.445312 234.328125 96.253906 C 234.515625 96.066406 234.824219 96.0625 235.011719 96.253906 L 237.867188 99.101562 L 243.460938 93.511719 C 243.648438 93.320312 243.957031 93.320312 244.144531 93.511719 L 249.753906 99.101562 L 255.347656 93.511719 C 255.527344 93.328125 255.851562 93.328125 256.03125 93.511719 L 261.625 99.101562 L 267.230469 93.511719 C 267.421875 93.320312 267.726562 93.320312 267.917969 93.511719 L 273.023438 98.617188 L 273.023438 33.882812 C 273.023438 32.285156 271.722656 30.988281 270.125 30.988281 L 217.480469 30.988281 C 215.882812 30.988281 214.585938 32.285156 214.585938 33.882812 L 214.585938 61.300781 C 214.585938 61.570312 214.367188 61.789062 214.097656 61.789062 C 213.832031 61.789062 213.613281 61.570312 213.613281 61.300781 L 213.613281 33.882812 C 213.613281 31.75 215.347656 30.015625 217.480469 30.015625 L 270.125 30.015625 C 272.257812 30.015625 273.992188 31.75 273.992188 33.882812 L 273.992188 99.789062 C 273.992188 99.984375 273.875 100.160156 273.695312 100.234375 C 273.632812 100.261719 273.570312 100.273438 273.507812 100.273438 Z M 273.507812 100.273438 " fill-opacity="1" fill-rule="nonzero"/><path fill="#2e186b" d="M 226.515625 59.589844 C 226.617188 60.378906 226.894531 61.054688 228.242188 61.300781 L 228.242188 57.800781 C 226.234375 57.214844 225.019531 56.863281 225.019531 54.828125 C 225.019531 52.335938 227.042969 51.679688 228.242188 51.679688 L 228.242188 50.273438 L 228.929688 50.273438 L 228.929688 51.679688 C 230.746094 51.78125 232.167969 52.542969 232.167969 55.078125 L 230.878906 55.078125 C 230.792969 53.507812 230.394531 52.980469 228.929688 52.746094 L 228.929688 56.628906 C 230.425781 56.980469 231.964844 57.496094 231.964844 59.515625 C 231.964844 61.097656 230.675781 62.371094 228.929688 62.371094 L 228.929688 63.308594 L 228.242188 63.308594 L 228.242188 62.371094 C 227.320312 62.300781 225.355469 61.945312 225.269531 59.589844 Z M 228.929688 61.300781 C 230.058594 61.300781 230.675781 60.496094 230.675781 59.601562 C 230.675781 58.5625 229.808594 58.09375 228.929688 57.949219 Z M 228.242188 52.746094 C 226.9375 52.746094 226.308594 53.640625 226.308594 54.59375 C 226.308594 55.414062 226.835938 56.027344 227.453125 56.21875 L 228.242188 56.46875 Z M 228.242188 52.746094 " fill-opacity="1" fill-rule="nonzero"/><path fill="#2e186b" d="M 265.054688 87.066406 L 245.609375 87.066406 C 245.339844 87.066406 245.125 86.847656 245.125 86.582031 C 245.125 86.3125 245.339844 86.09375 245.609375 86.09375 L 265.054688 86.09375 C 265.320312 86.09375 265.539062 86.3125 265.539062 86.582031 C 265.539062 86.847656 265.320312 87.066406 265.054688 87.066406 Z M 265.054688 87.066406 " fill-opacity="1" fill-rule="nonzero"/><path fill="#2e186b" d="M 243.804688 80.597656 L 235.5625 80.597656 C 235.296875 80.597656 235.078125 80.382812 235.078125 80.113281 C 235.078125 79.847656 235.296875 79.628906 235.5625 79.628906 L 243.804688 79.628906 C 244.070312 79.628906 244.289062 79.847656 244.289062 80.113281 C 244.289062 80.382812 244.070312 80.597656 243.804688 80.597656 Z M 243.804688 80.597656 " fill-opacity="1" fill-rule="nonzero"/><path fill="#2e186b" d="M 265.054688 72.191406 L 235.5625 72.191406 C 235.296875 72.191406 235.078125 71.976562 235.078125 71.707031 C 235.078125 71.441406 235.296875 71.222656 235.5625 71.222656 L 265.054688 71.222656 C 265.320312 71.222656 265.539062 71.441406 265.539062 71.707031 C 265.539062 71.976562 265.320312 72.191406 265.054688 72.191406 Z M 265.054688 72.191406 " fill-opacity="1" fill-rule="nonzero"/><path fill="#2e186b" d="M 258.386719 63.140625 L 238.792969 63.140625 C 238.527344 63.140625 238.308594 62.921875 238.308594 62.65625 C 238.308594 62.386719 238.527344 62.171875 238.792969 62.171875 L 258.386719 62.171875 C 258.65625 62.171875 258.871094 62.386719 258.871094 62.65625 C 258.871094 62.921875 258.65625 63.140625 258.386719 63.140625 Z M 258.386719 63.140625 " fill-opacity="1" fill-rule="nonzero"/><path fill="#2e186b" d="M 265.054688 63.140625 L 261.523438 63.140625 C 261.253906 63.140625 261.035156 62.921875 261.035156 62.65625 C 261.035156 62.386719 261.253906 62.171875 261.523438 62.171875 L 265.054688 62.171875 C 265.320312 62.171875 265.539062 62.386719 265.539062 62.65625 C 265.539062 62.921875 265.320312 63.140625 265.054688 63.140625 Z M 265.054688 63.140625 " fill-opacity="1" fill-rule="nonzero"/><path fill="#2e186b" d="M 247.867188 54.085938 L 238.792969 54.085938 C 238.527344 54.085938 238.308594 53.871094 238.308594 53.601562 C 238.308594 53.335938 238.527344 53.117188 238.792969 53.117188 L 247.867188 53.117188 C 248.136719 53.117188 248.355469 53.335938 248.355469 53.601562 C 248.355469 53.871094 248.136719 54.085938 247.867188 54.085938 Z M 247.867188 54.085938 " fill-opacity="1" fill-rule="nonzero"/><path fill="#2e186b" d="M 265.054688 54.085938 L 253.09375 54.085938 C 252.824219 54.085938 252.609375 53.871094 252.609375 53.601562 C 252.609375 53.335938 252.824219 53.117188 253.09375 53.117188 L 265.054688 53.117188 C 265.320312 53.117188 265.539062 53.335938 265.539062 53.601562 C 265.539062 53.871094 265.320312 54.085938 265.054688 54.085938 Z M 265.054688 54.085938 " fill-opacity="1" fill-rule="nonzero"/><path fill="#2e186b" d="M 258.8125 39.21875 L 258.8125 43.335938 C 258.8125 43.714844 258.507812 44.015625 258.132812 44.015625 L 228.171875 44.015625 C 227.796875 44.015625 227.492188 43.714844 227.492188 43.335938 L 227.492188 39.21875 C 227.492188 38.839844 227.796875 38.535156 228.171875 38.535156 L 258.132812 38.535156 C 258.507812 38.535156 258.8125 38.839844 258.8125 39.21875 Z M 258.8125 39.21875 " fill-opacity="1" fill-rule="nonzero"/><path fill="#2e186b" d="M 74.820312 33.140625 C 71.574219 33.140625 68.429688 33.566406 65.433594 34.355469 L 65.433594 105.449219 C 68.429688 106.238281 71.574219 106.664062 74.820312 106.664062 C 95.121094 106.664062 111.582031 90.207031 111.582031 69.902344 C 111.582031 49.601562 95.121094 33.140625 74.820312 33.140625 Z M 74.820312 33.140625 " fill-opacity="1" fill-rule="nonzero"/><path fill="#2e186b" d="M 74.820312 107.148438 C 71.609375 107.148438 68.410156 106.734375 65.3125 105.917969 C 65.097656 105.863281 64.949219 105.671875 64.949219 105.449219 L 64.949219 34.355469 C 64.949219 34.136719 65.097656 33.941406 65.3125 33.886719 C 68.410156 33.070312 71.609375 32.65625 74.820312 32.65625 C 95.355469 32.65625 112.066406 49.367188 112.066406 69.902344 C 112.066406 90.441406 95.355469 107.148438 74.820312 107.148438 Z M 65.917969 105.074219 C 68.824219 105.808594 71.816406 106.179688 74.820312 106.179688 C 94.824219 106.179688 111.09375 89.90625 111.09375 69.902344 C 111.09375 49.902344 94.824219 33.628906 74.820312 33.628906 C 71.816406 33.628906 68.824219 34 65.917969 34.730469 Z M 65.917969 105.074219 " fill-opacity="1" fill-rule="nonzero"/><path fill="#ffffff" d="M 104.234375 69.902344 C 104.234375 71.105469 104.175781 72.308594 104.054688 73.507812 C 103.9375 74.703125 103.761719 75.894531 103.527344 77.074219 C 103.292969 78.253906 103 79.421875 102.648438 80.574219 C 102.300781 81.726562 101.894531 82.859375 101.433594 83.972656 C 100.972656 85.082031 100.460938 86.171875 99.890625 87.230469 C 99.324219 88.292969 98.707031 89.324219 98.039062 90.328125 C 97.367188 91.328125 96.652344 92.292969 95.890625 93.222656 C 95.125 94.15625 94.316406 95.046875 93.464844 95.898438 C 92.613281 96.75 91.722656 97.554688 90.792969 98.320312 C 89.863281 99.082031 88.898438 99.800781 87.894531 100.46875 C 86.894531 101.136719 85.863281 101.753906 84.800781 102.324219 C 83.738281 102.890625 82.652344 103.40625 81.539062 103.867188 C 80.429688 104.328125 79.296875 104.730469 78.144531 105.082031 C 76.992188 105.429688 75.824219 105.722656 74.644531 105.957031 C 73.464844 106.191406 72.273438 106.367188 71.074219 106.488281 C 69.878906 106.605469 68.675781 106.664062 67.472656 106.664062 C 66.269531 106.664062 65.066406 106.605469 63.871094 106.488281 C 62.671875 106.367188 61.480469 106.191406 60.300781 105.957031 C 59.121094 105.722656 57.953125 105.429688 56.800781 105.082031 C 55.648438 104.730469 54.515625 104.328125 53.40625 103.867188 C 52.292969 103.40625 51.207031 102.890625 50.144531 102.324219 C 49.082031 101.753906 48.050781 101.136719 47.050781 100.46875 C 46.046875 99.800781 45.082031 99.082031 44.152344 98.320312 C 43.222656 97.554688 42.332031 96.75 41.480469 95.898438 C 40.628906 95.046875 39.820312 94.15625 39.054688 93.222656 C 38.292969 92.292969 37.574219 91.328125 36.90625 90.328125 C 36.238281 89.324219 35.621094 88.292969 35.050781 87.230469 C 34.484375 86.171875 33.972656 85.082031 33.511719 83.972656 C 33.050781 82.859375 32.644531 81.726562 32.292969 80.574219 C 31.945312 79.421875 31.652344 78.253906 31.417969 77.074219 C 31.183594 75.894531 31.007812 74.703125 30.890625 73.507812 C 30.769531 72.308594 30.710938 71.105469 30.710938 69.902344 C 30.710938 68.699219 30.769531 67.5 30.890625 66.300781 C 31.007812 65.101562 31.183594 63.914062 31.417969 62.730469 C 31.652344 61.550781 31.945312 60.382812 32.292969 59.230469 C 32.644531 58.078125 33.050781 56.949219 33.511719 55.835938 C 33.972656 54.722656 34.484375 53.636719 35.050781 52.574219 C 35.621094 51.511719 36.238281 50.480469 36.90625 49.480469 C 37.574219 48.480469 38.292969 47.511719 39.054688 46.582031 C 39.820312 45.652344 40.628906 44.761719 41.480469 43.910156 C 42.332031 43.058594 43.222656 42.25 44.152344 41.488281 C 45.082031 40.722656 46.046875 40.007812 47.050781 39.335938 C 48.050781 38.667969 49.082031 38.050781 50.144531 37.484375 C 51.207031 36.914062 52.292969 36.402344 53.40625 35.941406 C 54.515625 35.480469 55.648438 35.074219 56.800781 34.726562 C 57.953125 34.375 59.121094 34.082031 60.300781 33.847656 C 61.480469 33.613281 62.671875 33.4375 63.871094 33.320312 C 65.066406 33.203125 66.269531 33.140625 67.472656 33.140625 C 68.675781 33.140625 69.878906 33.203125 71.074219 33.320312 C 72.273438 33.4375 73.464844 33.613281 74.644531 33.847656 C 75.824219 34.082031 76.992188 34.375 78.144531 34.726562 C 79.296875 35.074219 80.429688 35.480469 81.539062 35.941406 C 82.652344 36.402344 83.738281 36.914062 84.800781 37.484375 C 85.863281 38.050781 86.894531 38.667969 87.894531 39.335938 C 88.898438 40.007812 89.863281 40.722656 90.792969 41.488281 C 91.722656 42.25 92.613281 43.058594 93.464844 43.910156 C 94.316406 44.761719 95.125 45.652344 95.890625 46.582031 C 96.652344 47.511719 97.367188 48.480469 98.039062 49.480469 C 98.707031 50.480469 99.324219 51.511719 99.890625 52.574219 C 100.460938 53.636719 100.972656 54.722656 101.433594 55.835938 C 101.894531 56.949219 102.300781 58.078125 102.648438 59.230469 C 103 60.382812 103.292969 61.550781 103.527344 62.730469 C 103.761719 63.914062 103.9375 65.101562 104.054688 66.300781 C 104.175781 67.5 104.234375 68.699219 104.234375 69.902344 Z M 104.234375 69.902344 " fill-opacity="1" fill-rule="nonzero"/><path fill="#ffffff" d="M 92.519531 69.902344 C 92.519531 70.722656 92.480469 71.542969 92.398438 72.359375 C 92.316406 73.175781 92.199219 73.984375 92.039062 74.789062 C 91.878906 75.59375 91.679688 76.390625 91.441406 77.171875 C 91.203125 77.957031 90.925781 78.730469 90.613281 79.488281 C 90.296875 80.246094 89.949219 80.988281 89.5625 81.710938 C 89.175781 82.433594 88.753906 83.136719 88.296875 83.816406 C 87.84375 84.5 87.355469 85.160156 86.832031 85.792969 C 86.3125 86.425781 85.761719 87.035156 85.183594 87.613281 C 84.601562 88.195312 83.996094 88.742188 83.363281 89.265625 C 82.726562 89.785156 82.070312 90.273438 81.386719 90.730469 C 80.707031 91.183594 80.003906 91.605469 79.28125 91.992188 C 78.554688 92.378906 77.816406 92.730469 77.058594 93.042969 C 76.300781 93.355469 75.527344 93.632812 74.742188 93.871094 C 73.957031 94.109375 73.164062 94.308594 72.359375 94.46875 C 71.554688 94.628906 70.742188 94.75 69.925781 94.828125 C 69.109375 94.910156 68.292969 94.949219 67.472656 94.949219 C 66.652344 94.949219 65.832031 94.910156 65.015625 94.828125 C 64.199219 94.75 63.390625 94.628906 62.585938 94.46875 C 61.78125 94.308594 60.988281 94.109375 60.203125 93.871094 C 59.417969 93.632812 58.644531 93.355469 57.886719 93.042969 C 57.128906 92.730469 56.390625 92.378906 55.664062 91.992188 C 54.941406 91.605469 54.238281 91.183594 53.558594 90.730469 C 52.875 90.273438 52.21875 89.785156 51.582031 89.265625 C 50.949219 88.742188 50.34375 88.195312 49.761719 87.613281 C 49.183594 87.035156 48.632812 86.425781 48.109375 85.792969 C 47.589844 85.160156 47.101562 84.5 46.648438 83.816406 C 46.191406 83.136719 45.769531 82.433594 45.382812 81.710938 C 44.996094 80.988281 44.648438 80.246094 44.332031 79.488281 C 44.019531 78.730469 43.742188 77.957031 43.503906 77.171875 C 43.265625 76.390625 43.066406 75.59375 42.90625 74.789062 C 42.746094 73.984375 42.628906 73.175781 42.546875 72.359375 C 42.464844 71.542969 42.425781 70.722656 42.425781 69.902344 C 42.425781 69.082031 42.464844 68.265625 42.546875 67.449219 C 42.628906 66.632812 42.746094 65.820312 42.90625 65.015625 C 43.066406 64.210938 43.265625 63.417969 43.503906 62.632812 C 43.742188 61.847656 44.019531 61.074219 44.332031 60.316406 C 44.648438 59.558594 44.996094 58.820312 45.382812 58.097656 C 45.769531 57.371094 46.191406 56.671875 46.648438 55.988281 C 47.101562 55.304688 47.589844 54.648438 48.109375 54.015625 C 48.632812 53.378906 49.183594 52.773438 49.761719 52.191406 C 50.34375 51.613281 50.949219 51.0625 51.582031 50.542969 C 52.21875 50.023438 52.875 49.535156 53.558594 49.078125 C 54.238281 48.621094 54.941406 48.199219 55.664062 47.8125 C 56.390625 47.425781 57.128906 47.078125 57.886719 46.761719 C 58.644531 46.449219 59.417969 46.171875 60.203125 45.933594 C 60.988281 45.695312 61.78125 45.496094 62.585938 45.339844 C 63.390625 45.179688 64.199219 45.058594 65.015625 44.976562 C 65.832031 44.898438 66.652344 44.855469 67.472656 44.855469 C 68.292969 44.855469 69.109375 44.898438 69.925781 44.976562 C 70.742188 45.058594 71.554688 45.179688 72.359375 45.339844 C 73.164062 45.496094 73.957031 45.695312 74.742188 45.933594 C 75.527344 46.171875 76.300781 46.449219 77.058594 46.761719 C 77.816406 47.078125 78.554688 47.425781 79.28125 47.8125 C 80.003906 48.199219 80.707031 48.621094 81.386719 49.078125 C 82.070312 49.535156 82.726562 50.023438 83.363281 50.542969 C 83.996094 51.0625 84.601562 51.613281 85.183594 52.191406 C 85.761719 52.773438 86.3125 53.378906 86.832031 54.015625 C 87.355469 54.648438 87.84375 55.304688 88.296875 55.988281 C 88.753906 56.671875 89.175781 57.371094 89.5625 58.097656 C 89.949219 58.820312 90.296875 59.558594 90.613281 60.316406 C 90.925781 61.074219 91.203125 61.847656 91.441406 62.632812 C 91.679688 63.417969 91.878906 64.210938 92.039062 65.015625 C 92.199219 65.820312 92.316406 66.632812 92.398438 67.449219 C 92.480469 68.265625 92.519531 69.082031 92.519531 69.902344 Z M 92.519531 69.902344 " fill-opacity="1" fill-rule="nonzero"/><path fill="#2e186b" d="M 48.898438 71.066406 C 48.898438 82.226562 56.199219 91.6875 66.285156 94.917969 C 53.007812 94.304688 42.429688 83.339844 42.429688 69.902344 C 42.429688 56.070312 53.644531 44.855469 67.476562 44.855469 C 70.144531 44.855469 72.71875 45.277344 75.132812 46.050781 C 74.734375 46.027344 74.339844 46.023438 73.945312 46.023438 C 60.113281 46.023438 48.898438 57.234375 48.898438 71.066406 Z M 48.898438 71.066406 " fill-opacity="1" fill-rule="nonzero"/><path fill="#2e186b" d="M 67.472656 95.433594 C 53.394531 95.433594 41.941406 83.980469 41.941406 69.902344 C 41.941406 55.824219 53.394531 44.371094 67.472656 44.371094 C 81.550781 44.371094 93.003906 55.824219 93.003906 69.902344 C 93.003906 83.980469 81.550781 95.433594 67.472656 95.433594 Z M 67.472656 45.339844 C 53.929688 45.339844 42.910156 56.359375 42.910156 69.902344 C 42.910156 83.445312 53.929688 94.464844 67.472656 94.464844 C 81.015625 94.464844 92.035156 83.445312 92.035156 69.902344 C 92.035156 56.359375 81.015625 45.339844 67.472656 45.339844 Z M 67.472656 45.339844 " fill-opacity="1" fill-rule="nonzero"/><path fill="#2e186b" d="M 67.472656 107.148438 C 46.933594 107.148438 30.226562 90.441406 30.226562 69.902344 C 30.226562 61.410156 33.011719 53.410156 38.277344 46.773438 C 38.445312 46.5625 38.75 46.527344 38.960938 46.695312 C 39.167969 46.859375 39.203125 47.164062 39.039062 47.375 C 33.910156 53.839844 31.195312 61.628906 31.195312 69.902344 C 31.195312 89.90625 47.46875 106.179688 67.472656 106.179688 C 75.753906 106.179688 83.851562 103.316406 90.273438 98.117188 C 90.484375 97.949219 90.789062 97.980469 90.957031 98.191406 C 91.125 98.398438 91.09375 98.703125 90.886719 98.871094 C 84.289062 104.210938 75.972656 107.148438 67.472656 107.148438 Z M 67.472656 107.148438 " fill-opacity="1" fill-rule="nonzero"/><path fill="#2e186b" d="M 96.261719 93.253906 C 96.152344 93.253906 96.046875 93.21875 95.957031 93.148438 C 95.75 92.980469 95.714844 92.675781 95.878906 92.464844 C 101.027344 85.992188 103.75 78.191406 103.75 69.902344 C 103.75 49.902344 87.476562 33.628906 67.472656 33.628906 C 59.167969 33.628906 51.351562 36.359375 44.871094 41.527344 C 44.664062 41.691406 44.359375 41.660156 44.191406 41.449219 C 44.023438 41.238281 44.058594 40.933594 44.269531 40.765625 C 50.921875 35.460938 58.945312 32.65625 67.472656 32.65625 C 88.011719 32.65625 104.71875 49.367188 104.71875 69.902344 C 104.71875 78.414062 101.925781 86.421875 96.640625 93.070312 C 96.542969 93.1875 96.402344 93.253906 96.261719 93.253906 Z M 96.261719 93.253906 " fill-opacity="1" fill-rule="nonzero"/><path fill="#2e186b" d="M 62.125 60.140625 C 63.234375 58.929688 64.785156 58.3125 66.78125 58.292969 L 66.78125 56.3125 L 68.195312 56.3125 L 68.195312 58.261719 C 70.171875 58.402344 71.6875 58.984375 72.746094 60.011719 C 73.804688 61.039062 74.355469 62.398438 74.40625 64.085938 L 71.800781 64.085938 C 71.730469 63.332031 71.527344 62.683594 71.1875 62.136719 C 70.5625 61.132812 69.566406 60.605469 68.195312 60.558594 L 68.195312 67.796875 C 70.5 68.441406 72.0625 69.046875 72.886719 69.613281 C 74.226562 70.546875 74.898438 71.925781 74.898438 73.753906 C 74.898438 76.394531 74.039062 78.269531 72.320312 79.382812 C 71.367188 80 69.992188 80.40625 68.195312 80.605469 L 68.195312 83.496094 L 66.78125 83.496094 L 66.78125 80.605469 C 63.890625 80.417969 61.929688 79.394531 60.898438 77.535156 C 60.332031 76.535156 60.046875 75.179688 60.046875 73.46875 L 62.683594 73.46875 C 62.761719 74.832031 62.976562 75.824219 63.324219 76.449219 C 63.941406 77.570312 65.082031 78.203125 66.75 78.339844 L 66.75 70.222656 C 64.605469 69.816406 63.023438 69.136719 62 68.183594 C 60.976562 67.230469 60.464844 65.910156 60.464844 64.222656 C 60.464844 62.710938 61.019531 61.351562 62.125 60.140625 Z M 64.121094 66.351562 C 64.773438 66.90625 65.648438 67.292969 66.75 67.511719 L 66.75 60.511719 C 65.449219 60.5625 64.523438 60.960938 63.972656 61.703125 C 63.421875 62.449219 63.144531 63.226562 63.144531 64.042969 C 63.144531 65.023438 63.472656 65.792969 64.121094 66.351562 Z M 71.710938 76.554688 C 72.046875 75.957031 72.214844 75.269531 72.214844 74.484375 C 72.214844 73.242188 71.757812 72.296875 70.847656 71.652344 C 70.320312 71.277344 69.4375 70.917969 68.195312 70.582031 L 68.195312 78.414062 C 69.894531 78.335938 71.066406 77.714844 71.710938 76.554688 Z M 71.710938 76.554688 " fill-opacity="1" fill-rule="nonzero"/><g clip-path="url(#469eff9573)"><path fill="#2e186b" d="M 213.136719 65.269531 L 185.457031 65.269531 L 185.457031 276.496094 L 213.136719 276.496094 C 222.152344 276.496094 229.449219 269.203125 229.449219 260.179688 L 229.449219 81.585938 C 229.449219 72.566406 222.152344 65.269531 213.136719 65.269531 Z M 213.136719 65.269531 " fill-opacity="1" fill-rule="nonzero"/></g><g clip-path="url(#2b4fe82dd2)"><path fill="#2e186b" d="M 213.136719 276.980469 L 185.457031 276.980469 C 185.1875 276.980469 184.972656 276.765625 184.972656 276.496094 L 184.972656 65.269531 C 184.972656 65 185.1875 64.785156 185.457031 64.785156 L 213.136719 64.785156 C 222.398438 64.785156 229.9375 72.320312 229.9375 81.585938 L 229.9375 260.179688 C 229.9375 269.445312 222.398438 276.980469 213.136719 276.980469 Z M 185.941406 276.011719 L 213.136719 276.011719 C 221.863281 276.011719 228.964844 268.910156 228.964844 260.179688 L 228.964844 81.585938 C 228.964844 72.855469 221.863281 65.753906 213.136719 65.753906 L 185.941406 65.753906 Z M 185.941406 276.011719 " fill-opacity="1" fill-rule="nonzero"/></g><path fill="#2e186b" d="M 75.753906 82.714844 L 213.230469 82.714844 L 213.230469 244.832031 L 75.753906 244.832031 Z M 75.753906 82.714844 " fill-opacity="1" fill-rule="nonzero"/><path fill="#ffffff" d="M 213.230469 82.714844 L 213.230469 89.824219 L 81.601562 89.824219 L 81.601562 244.832031 L 75.753906 244.832031 L 75.753906 82.714844 Z M 213.230469 82.714844 " fill-opacity="1" fill-rule="nonzero"/><path fill="#ffffff" d="M 213.230469 81.585938 L 213.230469 84.296875 L 75.753906 84.296875 L 75.753906 81.585938 C 75.753906 72.566406 83.054688 65.269531 92.070312 65.269531 L 196.914062 65.269531 C 205.929688 65.269531 213.230469 72.566406 213.230469 81.585938 Z M 213.230469 81.585938 " fill-opacity="1" fill-rule="nonzero"/><g clip-path="url(#27b806b082)"><path fill="#ffffff" d="M 213.230469 241.339844 L 213.230469 260.179688 C 213.230469 269.203125 205.929688 276.496094 196.914062 276.496094 L 92.070312 276.496094 C 83.054688 276.496094 75.753906 269.203125 75.753906 260.179688 L 75.753906 241.339844 Z M 213.230469 241.339844 " fill-opacity="1" fill-rule="nonzero"/></g><g clip-path="url(#eca1e9951b)"><path fill="#2e186b" d="M 196.914062 276.980469 L 118 276.980469 C 117.734375 276.980469 117.515625 276.765625 117.515625 276.496094 C 117.515625 276.226562 117.734375 276.011719 118 276.011719 L 196.914062 276.011719 C 205.644531 276.011719 212.746094 268.910156 212.746094 260.179688 L 212.746094 81.585938 C 212.746094 72.855469 205.644531 65.753906 196.914062 65.753906 L 92.070312 65.753906 C 83.339844 65.753906 76.238281 72.855469 76.238281 81.585938 L 76.238281 260.179688 C 76.238281 268.910156 83.339844 276.011719 92.070312 276.011719 L 107.507812 276.011719 C 107.773438 276.011719 107.992188 276.226562 107.992188 276.496094 C 107.992188 276.765625 107.773438 276.980469 107.507812 276.980469 L 92.070312 276.980469 C 82.804688 276.980469 75.269531 269.445312 75.269531 260.179688 L 75.269531 81.585938 C 75.269531 72.320312 82.804688 64.785156 92.070312 64.785156 L 196.914062 64.785156 C 206.179688 64.785156 213.714844 72.320312 213.714844 81.585938 L 213.714844 260.179688 C 213.714844 269.445312 206.179688 276.980469 196.914062 276.980469 Z M 196.914062 276.980469 " fill-opacity="1" fill-rule="nonzero"/></g><path fill="#2e186b" d="M 213.230469 84.78125 L 114.402344 84.78125 C 114.136719 84.78125 113.917969 84.5625 113.917969 84.296875 C 113.917969 84.027344 114.136719 83.8125 114.402344 83.8125 L 212.746094 83.8125 L 212.746094 81.585938 C 212.746094 72.855469 205.644531 65.753906 196.914062 65.753906 L 92.070312 65.753906 C 83.339844 65.753906 76.238281 72.855469 76.238281 81.585938 L 76.238281 83.8125 L 101.921875 83.8125 C 102.191406 83.8125 102.410156 84.027344 102.410156 84.296875 C 102.410156 84.5625 102.191406 84.78125 101.921875 84.78125 L 75.753906 84.78125 C 75.488281 84.78125 75.269531 84.5625 75.269531 84.296875 L 75.269531 81.585938 C 75.269531 72.320312 82.804688 64.785156 92.070312 64.785156 L 196.914062 64.785156 C 206.179688 64.785156 213.714844 72.320312 213.714844 81.585938 L 213.714844 84.296875 C 213.714844 84.5625 213.496094 84.78125 213.230469 84.78125 Z M 213.230469 84.78125 " fill-opacity="1" fill-rule="nonzero"/><path fill="#ffffff" d="M 111.824219 241.367188 C 118.820312 235.023438 123.019531 229.035156 121.507812 227.171875 C 119.75 225.007812 110.929688 229.253906 101.804688 236.65625 C 99.867188 238.230469 98.074219 239.820312 96.460938 241.367188 Z M 111.824219 241.367188 " fill-opacity="1" fill-rule="nonzero"/><path fill="#ffffff" d="M 118.703125 87.496094 C 111.605469 93.726562 107.3125 99.648438 108.792969 101.53125 C 110.515625 103.726562 119.40625 99.621094 128.648438 92.367188 C 130.609375 90.824219 132.429688 89.265625 134.0625 87.742188 Z M 118.703125 87.496094 " fill-opacity="1" fill-rule="nonzero"/><path fill="#2e186b" d="M 213.230469 241.824219 L 75.753906 241.824219 C 75.488281 241.824219 75.269531 241.605469 75.269531 241.339844 C 75.269531 241.070312 75.488281 240.851562 75.753906 240.851562 L 213.230469 240.851562 C 213.496094 240.851562 213.714844 241.070312 213.714844 241.339844 C 213.714844 241.605469 213.496094 241.824219 213.230469 241.824219 Z M 213.230469 241.824219 " fill-opacity="1" fill-rule="nonzero"/><path fill="#2e186b" d="M 158.996094 75.269531 L 129.292969 75.269531 C 129.023438 75.269531 128.808594 75.050781 128.808594 74.78125 C 128.808594 74.515625 129.023438 74.296875 129.292969 74.296875 L 158.996094 74.296875 C 159.265625 74.296875 159.484375 74.515625 159.484375 74.78125 C 159.484375 75.050781 159.265625 75.269531 158.996094 75.269531 Z M 158.996094 75.269531 " fill-opacity="1" fill-rule="nonzero"/><path fill="#ffffff" d="M 141.414062 232.035156 C 136.238281 232.035156 132.027344 227.824219 132.027344 222.648438 C 132.027344 217.472656 136.238281 213.257812 141.414062 213.257812 C 143.152344 213.257812 144.847656 213.738281 146.320312 214.640625 C 146.550781 214.78125 146.621094 215.082031 146.480469 215.308594 C 146.339844 215.535156 146.042969 215.609375 145.8125 215.46875 C 144.492188 214.65625 142.972656 214.230469 141.414062 214.230469 C 136.773438 214.230469 132.996094 218.003906 132.996094 222.648438 C 132.996094 227.289062 136.773438 231.066406 141.414062 231.066406 C 146.054688 231.066406 149.832031 227.289062 149.832031 222.648438 C 149.832031 222.121094 149.785156 221.59375 149.6875 221.082031 C 149.636719 220.820312 149.8125 220.566406 150.074219 220.515625 C 150.339844 220.464844 150.589844 220.640625 150.640625 220.902344 C 150.75 221.472656 150.804688 222.058594 150.804688 222.648438 C 150.804688 227.824219 146.589844 232.035156 141.414062 232.035156 Z M 141.414062 232.035156 " fill-opacity="1" fill-rule="nonzero"/><path fill="#ffffff" d="M 142.109375 224.554688 C 141.984375 224.554688 141.859375 224.507812 141.765625 224.414062 L 138.90625 221.554688 C 138.71875 221.367188 138.71875 221.058594 138.90625 220.871094 C 139.097656 220.679688 139.402344 220.679688 139.59375 220.871094 L 142.109375 223.386719 L 152.964844 212.53125 C 153.152344 212.34375 153.460938 212.34375 153.648438 212.53125 C 153.839844 212.722656 153.839844 213.027344 153.648438 213.21875 L 142.453125 224.414062 C 142.359375 224.507812 142.234375 224.554688 142.109375 224.554688 Z M 142.109375 224.554688 " fill-opacity="1" fill-rule="nonzero"/><path fill="#ffffff" d="M 175.789062 216.851562 L 158.148438 216.851562 C 157.882812 216.851562 157.664062 216.632812 157.664062 216.367188 C 157.664062 216.097656 157.882812 215.882812 158.148438 215.882812 L 175.789062 215.882812 C 176.058594 215.882812 176.273438 216.097656 176.273438 216.367188 C 176.273438 216.632812 176.058594 216.851562 175.789062 216.851562 Z M 175.789062 216.851562 " fill-opacity="1" fill-rule="nonzero"/><path fill="#ffffff" d="M 175.789062 223.132812 L 158.148438 223.132812 C 157.882812 223.132812 157.664062 222.914062 157.664062 222.648438 C 157.664062 222.378906 157.882812 222.164062 158.148438 222.164062 L 175.789062 222.164062 C 176.058594 222.164062 176.273438 222.378906 176.273438 222.648438 C 176.273438 222.914062 176.058594 223.132812 175.789062 223.132812 Z M 175.789062 223.132812 " fill-opacity="1" fill-rule="nonzero"/><path fill="#ffffff" d="M 166.96875 229.414062 L 158.148438 229.414062 C 157.882812 229.414062 157.664062 229.195312 157.664062 228.929688 C 157.664062 228.660156 157.882812 228.445312 158.148438 228.445312 L 166.96875 228.445312 C 167.238281 228.445312 167.457031 228.660156 167.457031 228.929688 C 167.457031 229.195312 167.238281 229.414062 166.96875 229.414062 Z M 166.96875 229.414062 " fill-opacity="1" fill-rule="nonzero"/><path fill="#ffffff" d="M 265.191406 269.402344 L 246.757812 269.402344 C 244.773438 269.402344 243.160156 267.792969 243.160156 265.808594 L 243.160156 252.023438 C 243.160156 250.039062 244.773438 248.429688 246.757812 248.429688 L 265.191406 248.429688 C 267.175781 248.429688 268.785156 250.039062 268.785156 252.023438 L 268.785156 265.808594 C 268.785156 267.792969 267.175781 269.402344 265.191406 269.402344 Z M 265.191406 269.402344 " fill-opacity="1" fill-rule="nonzero"/><path fill="#ff66c4" d="M 268.785156 251.90625 L 268.785156 254.078125 C 268.785156 252.15625 267.230469 250.601562 265.308594 250.601562 L 246.640625 250.601562 C 244.71875 250.601562 243.160156 252.15625 243.160156 254.078125 L 243.160156 251.90625 C 243.160156 249.988281 244.71875 248.433594 246.640625 248.433594 L 265.308594 248.433594 C 267.230469 248.433594 268.785156 249.988281 268.785156 251.90625 Z M 268.785156 251.90625 " fill-opacity="1" fill-rule="nonzero"/><path fill="#2e186b" d="M 265.308594 269.886719 L 262.375 269.886719 C 262.109375 269.886719 261.890625 269.671875 261.890625 269.402344 C 261.890625 269.136719 262.109375 268.917969 262.375 268.917969 L 265.308594 268.917969 C 266.957031 268.917969 268.300781 267.578125 268.300781 265.929688 L 268.300781 251.90625 C 268.300781 250.257812 266.957031 248.914062 265.308594 248.914062 L 246.636719 248.914062 C 244.988281 248.914062 243.648438 250.257812 243.648438 251.90625 L 243.648438 265.929688 C 243.648438 267.578125 244.988281 268.917969 246.636719 268.917969 L 258.546875 268.917969 C 258.816406 268.917969 259.035156 269.136719 259.035156 269.402344 C 259.035156 269.671875 258.816406 269.886719 258.546875 269.886719 L 246.636719 269.886719 C 244.453125 269.886719 242.675781 268.113281 242.675781 265.929688 L 242.675781 251.90625 C 242.675781 249.722656 244.453125 247.945312 246.636719 247.945312 L 265.308594 247.945312 C 267.492188 247.945312 269.269531 249.722656 269.269531 251.90625 L 269.269531 265.929688 C 269.269531 268.113281 267.492188 269.886719 265.308594 269.886719 Z M 265.308594 269.886719 " fill-opacity="1" fill-rule="nonzero"/><path fill="#2e186b" d="M 255.976562 262.394531 C 255.394531 262.394531 254.816406 262.199219 254.339844 261.804688 L 242.851562 252.277344 C 242.742188 252.1875 242.675781 252.050781 242.675781 251.90625 C 242.675781 249.722656 244.453125 247.945312 246.640625 247.945312 L 265.308594 247.945312 C 267.492188 247.945312 269.269531 249.722656 269.269531 251.90625 C 269.269531 252.050781 269.207031 252.1875 269.09375 252.277344 L 257.609375 261.804688 C 257.136719 262.199219 256.554688 262.394531 255.976562 262.394531 Z M 243.652344 251.683594 L 254.960938 261.058594 C 255.546875 261.546875 256.402344 261.546875 256.988281 261.058594 L 268.292969 251.683594 C 268.179688 250.140625 266.882812 248.917969 265.308594 248.917969 L 246.640625 248.917969 C 245.0625 248.917969 243.769531 250.140625 243.652344 251.683594 Z M 268.785156 251.90625 L 268.789062 251.90625 Z M 268.785156 251.90625 " fill-opacity="1" fill-rule="nonzero"/><path fill="#ffffff" d="M 156.234375 108.0625 L 156.234375 198.863281 C 156.234375 201.671875 153.957031 203.941406 151.15625 203.941406 L 137.59375 203.941406 C 134.785156 203.941406 132.507812 201.671875 132.507812 198.863281 L 132.507812 108.0625 C 132.507812 105.257812 134.785156 102.984375 137.59375 102.984375 L 151.15625 102.984375 C 153.957031 102.984375 156.234375 105.257812 156.234375 108.0625 Z M 156.234375 108.0625 " fill-opacity="1" fill-rule="nonzero"/><path fill="#ffffff" d="M 156.234375 108.0625 L 156.234375 198.863281 C 156.234375 201.671875 153.957031 203.941406 151.15625 203.941406 L 137.59375 203.941406 C 134.785156 203.941406 132.507812 201.671875 132.507812 198.863281 L 132.507812 108.0625 C 132.507812 105.257812 134.785156 102.984375 137.59375 102.984375 L 151.15625 102.984375 C 153.957031 102.984375 156.234375 105.257812 156.234375 108.0625 Z M 156.234375 108.0625 " fill-opacity="1" fill-rule="nonzero"/><path fill="#2e186b" d="M 151.15625 204.429688 L 137.59375 204.429688 C 134.523438 204.429688 132.023438 201.933594 132.023438 198.863281 L 132.023438 108.0625 C 132.023438 104.992188 134.523438 102.496094 137.59375 102.496094 L 151.15625 102.496094 C 154.222656 102.496094 156.71875 104.992188 156.71875 108.0625 L 156.71875 198.863281 C 156.71875 201.933594 154.222656 204.429688 151.15625 204.429688 Z M 137.59375 103.46875 C 135.058594 103.46875 132.992188 105.527344 132.992188 108.0625 L 132.992188 198.863281 C 132.992188 201.398438 135.058594 203.457031 137.59375 203.457031 L 151.15625 203.457031 C 153.6875 203.457031 155.75 201.398438 155.75 198.863281 L 155.75 108.0625 C 155.75 105.527344 153.6875 103.46875 151.15625 103.46875 Z M 137.59375 103.46875 " fill-opacity="1" fill-rule="nonzero"/><path fill="#2e186b" d="M 157.054688 51.902344 C 156.929688 51.902344 156.808594 51.855469 156.714844 51.765625 C 156.523438 51.578125 156.519531 51.273438 156.703125 51.078125 L 167.074219 40.394531 C 167.261719 40.203125 167.566406 40.199219 167.761719 40.386719 C 167.953125 40.570312 167.957031 40.878906 167.769531 41.070312 L 157.402344 51.753906 C 157.304688 51.851562 157.179688 51.902344 157.054688 51.902344 Z M 157.054688 51.902344 " fill-opacity="1" fill-rule="nonzero"/><path fill="#2e186b" d="M 145.957031 53.597656 C 145.835938 53.597656 145.714844 53.550781 145.617188 53.460938 C 145.425781 53.273438 145.421875 52.964844 145.609375 52.773438 L 155.976562 42.089844 C 156.164062 41.898438 156.472656 41.894531 156.664062 42.078125 C 156.855469 42.265625 156.859375 42.574219 156.675781 42.765625 L 146.304688 53.449219 C 146.210938 53.546875 146.082031 53.597656 145.957031 53.597656 Z M 145.957031 53.597656 " fill-opacity="1" fill-rule="nonzero"/><path fill="#2e186b" d="M 35.863281 248.949219 C 35.742188 248.949219 35.621094 248.902344 35.523438 248.808594 C 35.332031 248.621094 35.332031 248.316406 35.519531 248.125 L 48.644531 234.714844 C 48.832031 234.527344 49.140625 234.523438 49.332031 234.710938 C 49.523438 234.898438 49.527344 235.203125 49.339844 235.394531 L 36.210938 248.800781 C 36.117188 248.898438 35.988281 248.949219 35.863281 248.949219 Z M 35.863281 248.949219 " fill-opacity="1" fill-rule="nonzero"/><path fill="#2e186b" d="M 36.980469 255.09375 C 36.855469 255.09375 36.730469 255.042969 36.636719 254.949219 C 36.449219 254.757812 36.449219 254.449219 36.640625 254.261719 L 43.902344 247.140625 C 44.09375 246.953125 44.402344 246.953125 44.589844 247.144531 C 44.777344 247.335938 44.773438 247.644531 44.582031 247.832031 L 37.320312 254.953125 C 37.226562 255.046875 37.105469 255.09375 36.980469 255.09375 Z M 36.980469 255.09375 " fill-opacity="1" fill-rule="nonzero"/><path fill="#2e186b" d="M 248.820312 219.574219 C 248.699219 219.574219 248.574219 219.527344 248.480469 219.433594 C 248.289062 219.242188 248.289062 218.9375 248.480469 218.746094 L 257.976562 209.25 C 258.164062 209.058594 258.472656 209.058594 258.660156 209.25 C 258.851562 209.4375 258.851562 209.746094 258.660156 209.9375 L 249.164062 219.433594 C 249.070312 219.527344 248.945312 219.574219 248.820312 219.574219 Z M 248.820312 219.574219 " fill-opacity="1" fill-rule="nonzero"/><path fill="#2e186b" d="M 249.660156 225.160156 C 249.535156 225.160156 249.40625 225.113281 249.3125 225.015625 C 249.125 224.824219 249.128906 224.515625 249.320312 224.328125 L 266.359375 207.710938 C 266.550781 207.523438 266.859375 207.527344 267.046875 207.71875 C 267.234375 207.910156 267.230469 208.214844 267.035156 208.402344 L 250 225.023438 C 249.902344 225.113281 249.78125 225.160156 249.660156 225.160156 Z M 249.660156 225.160156 " fill-opacity="1" fill-rule="nonzero"/><path fill="#2e186b" d="M 260.117188 110.964844 L 219.074219 110.964844 L 219.074219 195.964844 L 260.117188 195.964844 C 263.753906 195.964844 266.699219 193.019531 266.699219 189.382812 L 266.699219 117.542969 C 266.699219 113.910156 263.753906 110.964844 260.117188 110.964844 Z M 260.117188 110.964844 " fill-opacity="1" fill-rule="nonzero"/><path fill="#2e186b" d="M 260.117188 196.449219 L 219.074219 196.449219 C 218.808594 196.449219 218.589844 196.230469 218.589844 195.964844 L 218.589844 110.964844 C 218.589844 110.695312 218.808594 110.480469 219.074219 110.480469 L 260.117188 110.480469 C 264.015625 110.480469 267.183594 113.648438 267.183594 117.542969 L 267.183594 189.382812 C 267.183594 193.277344 264.015625 196.449219 260.117188 196.449219 Z M 219.558594 195.480469 L 260.117188 195.480469 C 263.480469 195.480469 266.214844 192.746094 266.214844 189.382812 L 266.214844 117.542969 C 266.214844 114.183594 263.480469 111.449219 260.117188 111.449219 L 219.558594 111.449219 Z M 219.558594 195.480469 " fill-opacity="1" fill-rule="nonzero"/><path fill="#ff66c4" d="M 254.519531 116.378906 L 254.519531 190.546875 C 254.519531 193.539062 252.097656 195.964844 249.105469 195.964844 L 132.511719 195.964844 L 132.511719 110.964844 L 249.105469 110.964844 C 252.097656 110.964844 254.519531 113.390625 254.519531 116.378906 Z M 254.519531 116.378906 " fill-opacity="1" fill-rule="nonzero"/><path fill="#ffffff" d="M 254.519531 117.074219 L 254.519531 122.703125 C 254.519531 119.328125 251.78125 116.59375 248.410156 116.59375 L 132.511719 116.59375 L 132.511719 110.960938 L 248.410156 110.960938 C 248.464844 110.960938 248.519531 110.960938 248.570312 110.964844 C 251.867188 111.046875 254.519531 113.753906 254.519531 117.074219 Z M 254.519531 117.074219 " fill-opacity="1" fill-rule="nonzero"/><path fill="#2e186b" d="M 249.105469 196.449219 L 132.511719 196.449219 C 132.242188 196.449219 132.027344 196.230469 132.027344 195.964844 L 132.027344 110.964844 C 132.027344 110.695312 132.242188 110.480469 132.511719 110.480469 L 249.105469 110.480469 C 252.359375 110.480469 255.003906 113.128906 255.003906 116.378906 L 255.003906 190.546875 C 255.003906 193.800781 252.359375 196.449219 249.105469 196.449219 Z M 132.996094 195.480469 L 249.105469 195.480469 C 251.824219 195.480469 254.035156 193.265625 254.035156 190.546875 L 254.035156 116.378906 C 254.035156 113.660156 251.824219 111.449219 249.105469 111.449219 L 132.996094 111.449219 Z M 132.996094 195.480469 " fill-opacity="1" fill-rule="nonzero"/><path fill="#2e186b" d="M 234.398438 187.929688 L 144.046875 187.929688 C 143.777344 187.929688 143.558594 187.710938 143.558594 187.445312 C 143.558594 181.03125 138.78125 175.550781 132.445312 174.691406 C 132.203125 174.660156 132.027344 174.457031 132.027344 174.210938 L 132.027344 132.714844 C 132.027344 132.472656 132.203125 132.269531 132.445312 132.234375 C 138.78125 131.375 143.558594 125.890625 143.558594 119.484375 C 143.558594 119.214844 143.777344 119 144.046875 119 L 234.398438 119 C 234.664062 119 234.882812 119.214844 234.882812 119.484375 C 234.882812 126.582031 240.652344 132.359375 247.746094 132.359375 C 248.015625 132.359375 248.230469 132.574219 248.230469 132.84375 L 248.230469 174.085938 C 248.230469 174.355469 248.015625 174.570312 247.746094 174.570312 C 240.652344 174.570312 234.882812 180.347656 234.882812 187.445312 C 234.882812 187.710938 234.664062 187.929688 234.398438 187.929688 Z M 144.523438 186.960938 L 233.921875 186.960938 C 234.171875 179.710938 240.019531 173.859375 247.261719 173.609375 L 247.261719 133.320312 C 240.019531 133.066406 234.171875 127.21875 233.921875 119.96875 L 144.523438 119.96875 C 144.292969 126.507812 139.441406 132.050781 132.996094 133.132812 L 132.996094 173.796875 C 139.441406 174.871094 144.292969 180.417969 144.523438 186.960938 Z M 144.523438 186.960938 " fill-opacity="1" fill-rule="nonzero"/><path fill="#ffffff" d="M 210.726562 153.464844 C 210.726562 154.253906 210.691406 155.042969 210.625 155.832031 C 210.554688 156.621094 210.453125 157.402344 210.316406 158.175781 C 210.175781 158.953125 210.007812 159.71875 209.800781 160.476562 C 209.597656 161.234375 209.359375 161.976562 209.089844 162.707031 C 208.820312 163.441406 208.519531 164.152344 208.1875 164.851562 C 207.855469 165.550781 207.496094 166.226562 207.101562 166.886719 C 206.710938 167.542969 206.292969 168.179688 205.847656 168.789062 C 205.398438 169.402344 204.925781 169.988281 204.429688 170.546875 C 203.929688 171.105469 203.410156 171.636719 202.863281 172.136719 C 202.320312 172.640625 201.753906 173.109375 201.167969 173.550781 C 200.582031 173.992188 199.980469 174.398438 199.359375 174.769531 C 198.738281 175.140625 198.101562 175.480469 197.453125 175.78125 C 196.800781 176.085938 196.136719 176.351562 195.464844 176.582031 C 194.789062 176.8125 194.109375 177.003906 193.417969 177.15625 C 192.726562 177.3125 192.03125 177.429688 191.328125 177.503906 C 190.628906 177.582031 189.925781 177.621094 189.222656 177.621094 C 188.515625 177.621094 187.8125 177.582031 187.113281 177.503906 C 186.410156 177.429688 185.714844 177.3125 185.023438 177.15625 C 184.335938 177.003906 183.652344 176.8125 182.976562 176.582031 C 182.304688 176.351562 181.640625 176.085938 180.992188 175.78125 C 180.339844 175.480469 179.703125 175.140625 179.082031 174.769531 C 178.460938 174.398438 177.859375 173.992188 177.273438 173.550781 C 176.6875 173.109375 176.121094 172.640625 175.578125 172.136719 C 175.03125 171.636719 174.511719 171.105469 174.011719 170.546875 C 173.515625 169.988281 173.042969 169.402344 172.597656 168.789062 C 172.148438 168.179688 171.730469 167.542969 171.339844 166.886719 C 170.949219 166.226562 170.585938 165.550781 170.253906 164.851562 C 169.921875 164.152344 169.621094 163.441406 169.351562 162.707031 C 169.082031 161.976562 168.84375 161.234375 168.640625 160.476562 C 168.4375 159.71875 168.265625 158.953125 168.128906 158.175781 C 167.988281 157.402344 167.886719 156.621094 167.816406 155.832031 C 167.75 155.042969 167.714844 154.253906 167.714844 153.464844 C 167.714844 152.671875 167.75 151.882812 167.816406 151.097656 C 167.886719 150.308594 167.988281 149.527344 168.128906 148.75 C 168.265625 147.976562 168.4375 147.207031 168.640625 146.453125 C 168.84375 145.695312 169.082031 144.949219 169.351562 144.21875 C 169.621094 143.488281 169.921875 142.773438 170.253906 142.074219 C 170.585938 141.378906 170.949219 140.699219 171.339844 140.042969 C 171.730469 139.382812 172.148438 138.75 172.597656 138.136719 C 173.042969 137.527344 173.515625 136.941406 174.011719 136.382812 C 174.511719 135.820312 175.03125 135.292969 175.578125 134.789062 C 176.121094 134.289062 176.6875 133.816406 177.273438 133.378906 C 177.859375 132.9375 178.460938 132.53125 179.082031 132.160156 C 179.703125 131.785156 180.339844 131.449219 180.992188 131.144531 C 181.640625 130.84375 182.304688 130.574219 182.976562 130.347656 C 183.652344 130.117188 184.335938 129.925781 185.023438 129.769531 C 185.714844 129.617188 186.410156 129.5 187.113281 129.421875 C 187.8125 129.34375 188.515625 129.304688 189.222656 129.304688 C 189.925781 129.304688 190.628906 129.34375 191.328125 129.421875 C 192.03125 129.5 192.726562 129.617188 193.417969 129.769531 C 194.109375 129.925781 194.789062 130.117188 195.464844 130.347656 C 196.136719 130.574219 196.800781 130.84375 197.453125 131.144531 C 198.101562 131.449219 198.738281 131.785156 199.359375 132.160156 C 199.980469 132.53125 200.582031 132.9375 201.167969 133.378906 C 201.753906 133.816406 202.320312 134.289062 202.863281 134.789062 C 203.410156 135.292969 203.929688 135.820312 204.429688 136.382812 C 204.925781 136.941406 205.398438 137.527344 205.847656 138.136719 C 206.292969 138.75 206.710938 139.382812 207.101562 140.042969 C 207.496094 140.699219 207.855469 141.378906 208.1875 142.074219 C 208.519531 142.773438 208.820312 143.488281 209.089844 144.21875 C 209.359375 144.949219 209.597656 145.695312 209.800781 146.453125 C 210.007812 147.207031 210.175781 147.976562 210.316406 148.75 C 210.453125 149.527344 210.554688 150.308594 210.625 151.097656 C 210.691406 151.882812 210.726562 152.671875 210.726562 153.464844 Z M 210.726562 153.464844 " fill-opacity="1" fill-rule="nonzero"/><path fill="#ffffff" d="M 205.601562 153.464844 C 205.601562 154.253906 205.566406 155.042969 205.496094 155.832031 C 205.429688 156.621094 205.324219 157.402344 205.1875 158.175781 C 205.050781 158.953125 204.878906 159.71875 204.675781 160.476562 C 204.46875 161.234375 204.234375 161.976562 203.964844 162.707031 C 203.695312 163.441406 203.394531 164.152344 203.0625 164.851562 C 202.730469 165.550781 202.367188 166.226562 201.976562 166.886719 C 201.585938 167.542969 201.164062 168.179688 200.71875 168.789062 C 200.273438 169.402344 199.800781 169.988281 199.300781 170.546875 C 198.804688 171.105469 198.28125 171.636719 197.738281 172.136719 C 197.191406 172.640625 196.628906 173.109375 196.042969 173.550781 C 195.457031 173.992188 194.851562 174.398438 194.230469 174.769531 C 193.609375 175.140625 192.976562 175.480469 192.324219 175.78125 C 191.671875 176.085938 191.011719 176.351562 190.335938 176.582031 C 189.664062 176.8125 188.980469 177.003906 188.289062 177.15625 C 187.597656 177.3125 186.902344 177.429688 186.203125 177.503906 C 185.5 177.582031 184.796875 177.621094 184.09375 177.621094 C 183.390625 177.621094 182.6875 177.582031 181.984375 177.503906 C 181.285156 177.429688 180.589844 177.3125 179.898438 177.15625 C 179.207031 177.003906 178.523438 176.8125 177.851562 176.582031 C 177.175781 176.351562 176.515625 176.085938 175.863281 175.78125 C 175.210938 175.480469 174.578125 175.140625 173.957031 174.769531 C 173.335938 174.398438 172.730469 173.992188 172.144531 173.550781 C 171.558594 173.109375 170.996094 172.640625 170.449219 172.136719 C 169.90625 171.636719 169.382812 171.105469 168.886719 170.546875 C 168.386719 169.988281 167.914062 169.402344 167.46875 168.789062 C 167.023438 168.179688 166.601562 167.542969 166.210938 166.886719 C 165.820312 166.226562 165.457031 165.550781 165.125 164.851562 C 164.792969 164.152344 164.492188 163.441406 164.222656 162.707031 C 163.953125 161.976562 163.71875 161.234375 163.511719 160.476562 C 163.308594 159.71875 163.136719 158.953125 163 158.175781 C 162.863281 157.402344 162.757812 156.621094 162.691406 155.832031 C 162.621094 155.042969 162.585938 154.253906 162.585938 153.464844 C 162.585938 152.671875 162.621094 151.882812 162.691406 151.097656 C 162.757812 150.308594 162.863281 149.527344 163 148.75 C 163.136719 147.976562 163.308594 147.207031 163.511719 146.453125 C 163.71875 145.695312 163.953125 144.949219 164.222656 144.21875 C 164.492188 143.488281 164.792969 142.773438 165.125 142.074219 C 165.457031 141.378906 165.820312 140.699219 166.210938 140.042969 C 166.601562 139.382812 167.023438 138.75 167.46875 138.136719 C 167.914062 137.527344 168.386719 136.941406 168.886719 136.382812 C 169.382812 135.820312 169.90625 135.292969 170.449219 134.789062 C 170.996094 134.289062 171.558594 133.816406 172.144531 133.378906 C 172.730469 132.9375 173.335938 132.53125 173.957031 132.160156 C 174.578125 131.785156 175.210938 131.449219 175.863281 131.144531 C 176.515625 130.84375 177.175781 130.574219 177.851562 130.347656 C 178.523438 130.117188 179.207031 129.925781 179.898438 129.769531 C 180.589844 129.617188 181.285156 129.5 181.984375 129.421875 C 182.6875 129.34375 183.390625 129.304688 184.09375 129.304688 C 184.796875 129.304688 185.5 129.34375 186.203125 129.421875 C 186.902344 129.5 187.597656 129.617188 188.289062 129.769531 C 188.980469 129.925781 189.664062 130.117188 190.335938 130.347656 C 191.011719 130.574219 191.671875 130.84375 192.324219 131.144531 C 192.976562 131.449219 193.609375 131.785156 194.230469 132.160156 C 194.851562 132.53125 195.457031 132.9375 196.042969 133.378906 C 196.628906 133.816406 197.191406 134.289062 197.738281 134.789062 C 198.28125 135.292969 198.804688 135.820312 199.300781 136.382812 C 199.800781 136.941406 200.273438 137.527344 200.71875 138.136719 C 201.164062 138.75 201.585938 139.382812 201.976562 140.042969 C 202.367188 140.699219 202.730469 141.378906 203.0625 142.074219 C 203.394531 142.773438 203.695312 143.488281 203.964844 144.21875 C 204.234375 144.949219 204.46875 145.695312 204.675781 146.453125 C 204.878906 147.207031 205.050781 147.976562 205.1875 148.75 C 205.324219 149.527344 205.429688 150.308594 205.496094 151.097656 C 205.566406 151.882812 205.601562 152.671875 205.601562 153.464844 Z M 205.601562 153.464844 " fill-opacity="1" fill-rule="nonzero"/><path fill="#ff66c4" d="M 210.726562 153.464844 C 210.726562 166.804688 201.101562 177.621094 189.222656 177.621094 C 178.148438 177.621094 169.035156 168.230469 167.851562 156.152344 C 170.589844 165.949219 178.738281 173.054688 188.367188 173.054688 C 200.246094 173.054688 209.875 162.238281 209.875 148.898438 C 209.875 147.988281 209.824219 147.09375 209.738281 146.210938 C 210.378906 148.503906 210.726562 150.9375 210.726562 153.464844 Z M 210.726562 153.464844 " fill-opacity="1" fill-rule="nonzero"/><path fill="#2e186b" d="M 189.222656 178.105469 C 177.09375 178.105469 167.230469 167.050781 167.230469 153.464844 C 167.230469 139.875 177.09375 128.820312 189.222656 128.820312 C 201.347656 128.820312 211.210938 139.875 211.210938 153.464844 C 211.210938 167.050781 201.347656 178.105469 189.222656 178.105469 Z M 189.222656 129.789062 C 177.628906 129.789062 168.199219 140.410156 168.199219 153.464844 C 168.199219 166.515625 177.628906 177.136719 189.222656 177.136719 C 200.8125 177.136719 210.242188 166.515625 210.242188 153.464844 C 210.242188 140.410156 200.8125 129.789062 189.222656 129.789062 Z M 189.222656 129.789062 " fill-opacity="1" fill-rule="nonzero"/><path fill="#2e186b" d="M 182.882812 141.894531 C 184.195312 140.457031 186.035156 139.730469 188.398438 139.707031 L 188.398438 137.359375 L 190.078125 137.359375 L 190.078125 139.671875 C 192.417969 139.835938 194.214844 140.527344 195.46875 141.746094 C 196.722656 142.960938 197.378906 144.570312 197.4375 146.570312 L 194.347656 146.570312 C 194.265625 145.675781 194.023438 144.90625 193.625 144.257812 C 192.882812 143.070312 191.699219 142.449219 190.078125 142.386719 L 190.078125 150.964844 C 192.808594 151.730469 194.660156 152.449219 195.636719 153.121094 C 197.226562 154.226562 198.019531 155.859375 198.019531 158.027344 C 198.019531 161.15625 197 163.378906 194.964844 164.699219 C 193.835938 165.425781 192.207031 165.910156 190.078125 166.144531 L 190.078125 169.570312 L 188.398438 169.570312 L 188.398438 166.144531 C 184.976562 165.921875 182.652344 164.710938 181.429688 162.507812 C 180.757812 161.320312 180.421875 159.714844 180.421875 157.691406 L 183.546875 157.691406 C 183.640625 159.304688 183.894531 160.480469 184.304688 161.222656 C 185.035156 162.550781 186.386719 163.296875 188.363281 163.460938 L 188.363281 153.84375 C 185.824219 153.359375 183.945312 152.554688 182.734375 151.425781 C 181.523438 150.296875 180.917969 148.730469 180.917969 146.730469 C 180.917969 144.941406 181.574219 143.328125 182.882812 141.894531 Z M 185.25 149.253906 C 186.019531 149.914062 187.058594 150.371094 188.363281 150.632812 L 188.363281 142.335938 C 186.824219 142.394531 185.726562 142.863281 185.074219 143.746094 C 184.421875 144.628906 184.09375 145.554688 184.09375 146.519531 C 184.09375 147.683594 184.480469 148.59375 185.25 149.253906 Z M 194.242188 161.34375 C 194.640625 160.636719 194.84375 159.820312 194.84375 158.890625 C 194.84375 157.421875 194.300781 156.300781 193.21875 155.539062 C 192.59375 155.089844 191.546875 154.667969 190.078125 154.265625 L 190.078125 163.550781 C 192.089844 163.457031 193.476562 162.722656 194.242188 161.34375 Z M 194.242188 161.34375 " fill-opacity="1" fill-rule="nonzero"/><path fill="#ffffff" d="M 152.394531 146.140625 L 140.609375 146.140625 C 140.34375 146.140625 140.125 145.925781 140.125 145.65625 C 140.125 145.390625 140.34375 145.171875 140.609375 145.171875 L 152.394531 145.171875 C 152.664062 145.171875 152.878906 145.390625 152.878906 145.65625 C 152.878906 145.925781 152.664062 146.140625 152.394531 146.140625 Z M 152.394531 146.140625 " fill-opacity="1" fill-rule="nonzero"/><path fill="#ffffff" d="M 145.03125 153.949219 L 140.609375 153.949219 C 140.34375 153.949219 140.125 153.730469 140.125 153.464844 C 140.125 153.195312 140.34375 152.980469 140.609375 152.980469 L 145.03125 152.980469 C 145.296875 152.980469 145.515625 153.195312 145.515625 153.464844 C 145.515625 153.730469 145.296875 153.949219 145.03125 153.949219 Z M 145.03125 153.949219 " fill-opacity="1" fill-rule="nonzero"/><path fill="#ffffff" d="M 156.667969 161.757812 L 140.609375 161.757812 C 140.34375 161.757812 140.125 161.539062 140.125 161.269531 C 140.125 161.003906 140.34375 160.785156 140.609375 160.785156 L 156.667969 160.785156 C 156.933594 160.785156 157.152344 161.003906 157.152344 161.269531 C 157.152344 161.539062 156.933594 161.757812 156.667969 161.757812 Z M 156.667969 161.757812 " fill-opacity="1" fill-rule="nonzero"/><path fill="#ffffff" d="M 230.320312 150.046875 L 221.480469 150.046875 C 221.214844 150.046875 220.996094 149.828125 220.996094 149.558594 C 220.996094 149.292969 221.214844 149.074219 221.480469 149.074219 L 230.320312 149.074219 C 230.585938 149.074219 230.804688 149.292969 230.804688 149.558594 C 230.804688 149.828125 230.585938 150.046875 230.320312 150.046875 Z M 230.320312 150.046875 " fill-opacity="1" fill-rule="nonzero"/><path fill="#ffffff" d="M 237.539062 157.851562 L 221.480469 157.851562 C 221.214844 157.851562 220.996094 157.636719 220.996094 157.367188 C 220.996094 157.097656 221.214844 156.882812 221.480469 156.882812 L 237.539062 156.882812 C 237.804688 156.882812 238.023438 157.097656 238.023438 157.367188 C 238.023438 157.636719 237.804688 157.851562 237.539062 157.851562 Z M 237.539062 157.851562 " fill-opacity="1" fill-rule="nonzero"/><path fill="#2e186b" d="M 131.761719 258.917969 C 131.761719 259.214844 131.734375 259.511719 131.675781 259.804688 C 131.617188 260.097656 131.53125 260.378906 131.414062 260.65625 C 131.300781 260.929688 131.160156 261.191406 130.996094 261.441406 C 130.832031 261.6875 130.640625 261.917969 130.429688 262.128906 C 130.21875 262.339844 129.992188 262.527344 129.742188 262.695312 C 129.496094 262.859375 129.234375 263 128.957031 263.113281 C 128.683594 263.226562 128.398438 263.3125 128.105469 263.371094 C 127.8125 263.429688 127.515625 263.460938 127.21875 263.460938 C 126.921875 263.460938 126.625 263.429688 126.332031 263.371094 C 126.039062 263.3125 125.757812 263.226562 125.480469 263.113281 C 125.203125 263 124.941406 262.859375 124.695312 262.695312 C 124.445312 262.527344 124.21875 262.339844 124.007812 262.128906 C 123.796875 261.917969 123.605469 261.6875 123.441406 261.441406 C 123.277344 261.191406 123.136719 260.929688 123.023438 260.65625 C 122.90625 260.378906 122.820312 260.097656 122.761719 259.804688 C 122.707031 259.511719 122.675781 259.214844 122.675781 258.917969 C 122.675781 258.617188 122.707031 258.324219 122.761719 258.03125 C 122.820312 257.738281 122.90625 257.453125 123.023438 257.179688 C 123.136719 256.902344 123.277344 256.640625 123.441406 256.394531 C 123.605469 256.144531 123.796875 255.914062 124.007812 255.703125 C 124.21875 255.492188 124.445312 255.304688 124.695312 255.140625 C 124.941406 254.972656 125.203125 254.835938 125.480469 254.71875 C 125.757812 254.605469 126.039062 254.519531 126.332031 254.460938 C 126.625 254.402344 126.921875 254.375 127.21875 254.375 C 127.515625 254.375 127.8125 254.402344 128.105469 254.460938 C 128.398438 254.519531 128.683594 254.605469 128.957031 254.71875 C 129.234375 254.835938 129.496094 254.972656 129.742188 255.140625 C 129.992188 255.304688 130.21875 255.492188 130.429688 255.703125 C 130.640625 255.914062 130.832031 256.144531 130.996094 256.394531 C 131.160156 256.640625 131.300781 256.902344 131.414062 257.179688 C 131.53125 257.453125 131.617188 257.738281 131.675781 258.03125 C 131.734375 258.324219 131.761719 258.617188 131.761719 258.917969 Z M 131.761719 258.917969 " fill-opacity="1" fill-rule="nonzero"/><path fill="#2e186b" d="M 127.21875 263.945312 C 124.445312 263.945312 122.191406 261.6875 122.191406 258.917969 C 122.191406 256.144531 124.445312 253.890625 127.21875 253.890625 C 129.992188 253.890625 132.246094 256.144531 132.246094 258.917969 C 132.246094 261.6875 129.992188 263.945312 127.21875 263.945312 Z M 127.21875 254.859375 C 124.980469 254.859375 123.160156 256.679688 123.160156 258.917969 C 123.160156 261.15625 124.980469 262.976562 127.21875 262.976562 C 129.457031 262.976562 131.277344 261.15625 131.277344 258.917969 C 131.277344 256.679688 129.457031 254.859375 127.21875 254.859375 Z M 127.21875 254.859375 " fill-opacity="1" fill-rule="nonzero"/><path fill="#2e186b" d="M 149.035156 258.917969 C 149.035156 259.214844 149.007812 259.511719 148.949219 259.804688 C 148.890625 260.097656 148.804688 260.378906 148.691406 260.65625 C 148.574219 260.929688 148.4375 261.191406 148.269531 261.441406 C 148.105469 261.6875 147.914062 261.917969 147.703125 262.128906 C 147.492188 262.339844 147.265625 262.527344 147.015625 262.695312 C 146.769531 262.859375 146.507812 263 146.230469 263.113281 C 145.957031 263.226562 145.671875 263.3125 145.378906 263.371094 C 145.085938 263.429688 144.789062 263.460938 144.492188 263.460938 C 144.195312 263.460938 143.898438 263.429688 143.605469 263.371094 C 143.3125 263.3125 143.03125 263.226562 142.753906 263.113281 C 142.480469 263 142.21875 262.859375 141.96875 262.695312 C 141.722656 262.527344 141.492188 262.339844 141.28125 262.128906 C 141.070312 261.917969 140.882812 261.6875 140.714844 261.441406 C 140.550781 261.191406 140.410156 260.929688 140.296875 260.65625 C 140.179688 260.378906 140.09375 260.097656 140.039062 259.804688 C 139.980469 259.511719 139.949219 259.214844 139.949219 258.917969 C 139.949219 258.617188 139.980469 258.324219 140.039062 258.03125 C 140.09375 257.738281 140.179688 257.453125 140.296875 257.179688 C 140.410156 256.902344 140.550781 256.640625 140.714844 256.394531 C 140.882812 256.144531 141.070312 255.914062 141.28125 255.703125 C 141.492188 255.492188 141.722656 255.304688 141.96875 255.140625 C 142.21875 254.972656 142.480469 254.835938 142.753906 254.71875 C 143.03125 254.605469 143.3125 254.519531 143.605469 254.460938 C 143.898438 254.402344 144.195312 254.375 144.492188 254.375 C 144.789062 254.375 145.085938 254.402344 145.378906 254.460938 C 145.671875 254.519531 145.957031 254.605469 146.230469 254.71875 C 146.507812 254.835938 146.769531 254.972656 147.015625 255.140625 C 147.265625 255.304688 147.492188 255.492188 147.703125 255.703125 C 147.914062 255.914062 148.105469 256.144531 148.269531 256.394531 C 148.4375 256.640625 148.574219 256.902344 148.691406 257.179688 C 148.804688 257.453125 148.890625 257.738281 148.949219 258.03125 C 149.007812 258.324219 149.035156 258.617188 149.035156 258.917969 Z M 149.035156 258.917969 " fill-opacity="1" fill-rule="nonzero"/><path fill="#2e186b" d="M 144.492188 263.945312 C 141.71875 263.945312 139.464844 261.6875 139.464844 258.917969 C 139.464844 256.144531 141.71875 253.890625 144.492188 253.890625 C 147.265625 253.890625 149.519531 256.144531 149.519531 258.917969 C 149.519531 261.6875 147.265625 263.945312 144.492188 263.945312 Z M 144.492188 254.859375 C 142.253906 254.859375 140.433594 256.679688 140.433594 258.917969 C 140.433594 261.15625 142.253906 262.976562 144.492188 262.976562 C 146.730469 262.976562 148.550781 261.15625 148.550781 258.917969 C 148.550781 256.679688 146.730469 254.859375 144.492188 254.859375 Z M 144.492188 254.859375 " fill-opacity="1" fill-rule="nonzero"/><path fill="#2e186b" d="M 166.308594 258.917969 C 166.308594 259.214844 166.28125 259.511719 166.222656 259.804688 C 166.164062 260.097656 166.078125 260.378906 165.964844 260.65625 C 165.847656 260.929688 165.710938 261.191406 165.542969 261.441406 C 165.378906 261.6875 165.1875 261.917969 164.976562 262.128906 C 164.765625 262.339844 164.539062 262.527344 164.289062 262.695312 C 164.042969 262.859375 163.78125 263 163.503906 263.113281 C 163.230469 263.226562 162.945312 263.3125 162.652344 263.371094 C 162.359375 263.429688 162.0625 263.460938 161.765625 263.460938 C 161.46875 263.460938 161.171875 263.429688 160.878906 263.371094 C 160.585938 263.3125 160.304688 263.226562 160.027344 263.113281 C 159.753906 263 159.488281 262.859375 159.242188 262.695312 C 158.996094 262.527344 158.765625 262.339844 158.554688 262.128906 C 158.34375 261.917969 158.15625 261.6875 157.988281 261.441406 C 157.824219 261.191406 157.683594 260.929688 157.570312 260.65625 C 157.453125 260.378906 157.367188 260.097656 157.308594 259.804688 C 157.253906 259.511719 157.222656 259.214844 157.222656 258.917969 C 157.222656 258.617188 157.253906 258.324219 157.308594 258.03125 C 157.367188 257.738281 157.453125 257.453125 157.570312 257.179688 C 157.683594 256.902344 157.824219 256.640625 157.988281 256.394531 C 158.15625 256.144531 158.34375 255.914062 158.554688 255.703125 C 158.765625 255.492188 158.996094 255.304688 159.242188 255.140625 C 159.488281 254.972656 159.753906 254.835938 160.027344 254.71875 C 160.304688 254.605469 160.585938 254.519531 160.878906 254.460938 C 161.171875 254.402344 161.46875 254.375 161.765625 254.375 C 162.0625 254.375 162.359375 254.402344 162.652344 254.460938 C 162.945312 254.519531 163.230469 254.605469 163.503906 254.71875 C 163.78125 254.835938 164.042969 254.972656 164.289062 255.140625 C 164.539062 255.304688 164.765625 255.492188 164.976562 255.703125 C 165.1875 255.914062 165.378906 256.144531 165.542969 256.394531 C 165.710938 256.640625 165.847656 256.902344 165.964844 257.179688 C 166.078125 257.453125 166.164062 257.738281 166.222656 258.03125 C 166.28125 258.324219 166.308594 258.617188 166.308594 258.917969 Z M 166.308594 258.917969 " fill-opacity="1" fill-rule="nonzero"/><path fill="#2e186b" d="M 161.765625 263.945312 C 158.992188 263.945312 156.738281 261.6875 156.738281 258.917969 C 156.738281 256.144531 158.992188 253.890625 161.765625 253.890625 C 164.539062 253.890625 166.792969 256.144531 166.792969 258.917969 C 166.792969 261.6875 164.539062 263.945312 161.765625 263.945312 Z M 161.765625 254.859375 C 159.527344 254.859375 157.707031 256.679688 157.707031 258.917969 C 157.707031 261.15625 159.527344 262.976562 161.765625 262.976562 C 164.003906 262.976562 165.824219 261.15625 165.824219 258.917969 C 165.824219 256.679688 164.003906 254.859375 161.765625 254.859375 Z M 161.765625 254.859375 " fill-opacity="1" fill-rule="nonzero"/><path fill="#2e186b" d="M 107.074219 157.011719 L 98.835938 157.011719 C 98.835938 152.507812 95.1875 148.847656 90.683594 148.847656 L 83.441406 148.847656 L 83.441406 218.625 L 96.621094 218.625 C 100.660156 218.625 103.9375 215.351562 103.9375 211.308594 L 103.9375 210.527344 L 107.074219 210.527344 C 110.539062 210.527344 113.34375 207.714844 113.34375 204.253906 L 113.34375 163.285156 C 113.34375 159.820312 110.539062 157.011719 107.074219 157.011719 Z M 107.074219 157.011719 " fill-opacity="1" fill-rule="nonzero"/><path fill="#2e186b" d="M 96.621094 219.109375 L 83.441406 219.109375 C 83.175781 219.109375 82.957031 218.894531 82.957031 218.625 L 82.957031 148.847656 C 82.957031 148.578125 83.175781 148.363281 83.441406 148.363281 L 90.683594 148.363281 C 95.285156 148.363281 99.058594 151.980469 99.308594 156.527344 L 107.074219 156.527344 C 110.800781 156.527344 113.832031 159.558594 113.832031 163.285156 L 113.832031 204.253906 C 113.832031 207.980469 110.800781 211.011719 107.074219 211.011719 L 104.421875 211.011719 L 104.421875 211.308594 C 104.421875 215.609375 100.921875 219.109375 96.621094 219.109375 Z M 83.925781 218.140625 L 96.621094 218.140625 C 100.390625 218.140625 103.453125 215.074219 103.453125 211.308594 L 103.453125 210.527344 C 103.453125 210.261719 103.671875 210.042969 103.9375 210.042969 L 107.074219 210.042969 C 110.265625 210.042969 112.859375 207.445312 112.859375 204.253906 L 112.859375 163.285156 C 112.859375 160.09375 110.265625 157.496094 107.074219 157.496094 L 98.835938 157.496094 C 98.570312 157.496094 98.351562 157.28125 98.351562 157.011719 C 98.351562 152.777344 94.910156 149.332031 90.683594 149.332031 L 83.925781 149.332031 Z M 83.925781 218.140625 " fill-opacity="1" fill-rule="nonzero"/><path fill="#ffffff" d="M 92.777344 157.011719 C 92.777344 159.269531 91.867188 161.320312 90.394531 162.792969 C 88.910156 164.269531 86.878906 165.1875 84.621094 165.1875 L 38.875 165.1875 C 34.371094 165.1875 30.710938 161.527344 30.710938 157.011719 C 30.710938 154.753906 31.632812 152.714844 33.105469 151.242188 C 34.578125 149.757812 36.628906 148.847656 38.875 148.847656 L 84.621094 148.847656 C 89.128906 148.847656 92.777344 152.507812 92.777344 157.011719 Z M 92.777344 157.011719 " fill-opacity="1" fill-rule="nonzero"/><path fill="#ff66c4" d="M 92.777344 157.011719 C 92.777344 157.425781 92.746094 157.832031 92.6875 158.230469 C 92.101562 154.296875 88.714844 151.269531 84.621094 151.269531 L 38.878906 151.269531 C 36.628906 151.269531 34.582031 152.183594 33.105469 153.667969 C 31.898438 154.875 31.066406 156.453125 30.800781 158.222656 C 30.742188 157.828125 30.710938 157.425781 30.710938 157.011719 C 30.710938 154.753906 31.632812 152.714844 33.105469 151.242188 C 34.582031 149.757812 36.628906 148.847656 38.878906 148.847656 L 84.621094 148.847656 C 89.125 148.847656 92.777344 152.507812 92.777344 157.011719 Z M 92.777344 157.011719 " fill-opacity="1" fill-rule="nonzero"/><path fill="#2e186b" d="M 84.621094 165.671875 L 38.875 165.671875 C 34.105469 165.671875 30.226562 161.789062 30.226562 157.011719 C 30.226562 154.707031 31.128906 152.535156 32.761719 150.898438 C 34.386719 149.265625 36.558594 148.363281 38.875 148.363281 L 84.621094 148.363281 C 89.386719 148.363281 93.261719 152.242188 93.261719 157.011719 C 93.261719 159.332031 92.363281 161.507812 90.734375 163.136719 C 89.089844 164.773438 86.917969 165.671875 84.621094 165.671875 Z M 38.875 149.332031 C 36.816406 149.332031 34.890625 150.132812 33.449219 151.585938 C 31.996094 153.039062 31.195312 154.964844 31.195312 157.011719 C 31.195312 161.253906 34.640625 164.703125 38.875 164.703125 L 84.621094 164.703125 C 86.660156 164.703125 88.589844 163.902344 90.050781 162.449219 C 91.496094 161.003906 92.292969 159.074219 92.292969 157.011719 C 92.292969 152.777344 88.851562 149.332031 84.621094 149.332031 Z M 38.875 149.332031 " fill-opacity="1" fill-rule="nonzero"/><path fill="#2e186b" d="M 107.285156 163.285156 L 107.285156 204.253906 C 107.285156 207.71875 104.476562 210.527344 101.015625 210.527344 L 46.390625 210.527344 C 42.929688 210.527344 40.121094 207.71875 40.121094 204.253906 L 40.121094 163.285156 C 40.121094 159.820312 42.929688 157.011719 46.390625 157.011719 L 101.015625 157.011719 C 104.476562 157.011719 107.285156 159.820312 107.285156 163.285156 Z M 107.285156 163.285156 " fill-opacity="1" fill-rule="nonzero"/><path fill="#ffffff" d="M 106.402344 160.078125 C 105.464844 159.515625 104.371094 159.195312 103.195312 159.195312 L 48.574219 159.195312 C 45.109375 159.195312 42.300781 162 42.300781 165.46875 L 42.300781 206.4375 C 42.300781 207.609375 42.621094 208.707031 43.183594 209.644531 C 41.34375 208.550781 40.117188 206.542969 40.117188 204.253906 L 40.117188 163.285156 C 40.117188 159.820312 42.925781 157.011719 46.394531 157.011719 L 101.015625 157.011719 C 103.304688 157.011719 105.304688 158.238281 106.402344 160.078125 Z M 106.402344 160.078125 " fill-opacity="1" fill-rule="nonzero"/><path fill="#2e186b" d="M 101.015625 211.011719 L 46.390625 211.011719 C 42.667969 211.011719 39.636719 207.980469 39.636719 204.253906 L 39.636719 163.285156 C 39.636719 159.558594 42.667969 156.527344 46.390625 156.527344 L 101.015625 156.527344 C 104.738281 156.527344 107.769531 159.558594 107.769531 163.285156 L 107.769531 204.253906 C 107.769531 207.980469 104.738281 211.011719 101.015625 211.011719 Z M 46.390625 157.496094 C 43.203125 157.496094 40.605469 160.09375 40.605469 163.285156 L 40.605469 204.253906 C 40.605469 207.445312 43.203125 210.042969 46.390625 210.042969 L 101.015625 210.042969 C 104.203125 210.042969 106.800781 207.445312 106.800781 204.253906 L 106.800781 163.285156 C 106.800781 160.09375 104.203125 157.496094 101.015625 157.496094 Z M 46.390625 157.496094 " fill-opacity="1" fill-rule="nonzero"/><path fill="#ff66c4" d="M 97.878906 172.503906 L 97.878906 211.308594 C 97.878906 215.351562 94.601562 218.628906 90.558594 218.628906 L 38.03125 218.628906 C 33.988281 218.628906 30.710938 215.351562 30.710938 211.308594 L 30.710938 157.011719 C 30.710938 161.527344 34.371094 165.1875 38.875 165.1875 L 90.558594 165.1875 C 94.601562 165.1875 97.878906 168.464844 97.878906 172.503906 Z M 97.878906 172.503906 " fill-opacity="1" fill-rule="nonzero"/><path fill="#ffffff" d="M 32.8125 214.921875 C 32.8125 215.511719 32.878906 216.089844 33.019531 216.636719 C 31.597656 215.308594 30.710938 213.414062 30.710938 211.308594 L 30.710938 157.011719 C 30.710938 159.117188 31.507812 161.035156 32.8125 162.480469 Z M 32.8125 214.921875 " fill-opacity="1" fill-rule="nonzero"/><path fill="#ffffff" d="M 97.667969 170.789062 C 96.359375 169.550781 94.601562 168.800781 92.660156 168.800781 L 40.976562 168.800781 C 37.222656 168.800781 34.054688 166.253906 33.105469 162.792969 C 34.585938 164.277344 36.621094 165.1875 38.878906 165.1875 L 90.5625 165.1875 C 94.007812 165.1875 96.902344 167.578125 97.667969 170.789062 Z M 97.667969 170.789062 " fill-opacity="1" fill-rule="nonzero"/><path fill="#ffffff" d="M 97.878906 183.15625 L 97.878906 199.707031 L 76.96875 199.707031 C 75.238281 199.707031 73.832031 198.300781 73.832031 196.570312 L 73.832031 186.292969 C 73.832031 184.5625 75.238281 183.15625 76.96875 183.15625 Z M 97.878906 183.15625 " fill-opacity="1" fill-rule="nonzero"/><path fill="#ff66c4" d="M 97.878906 183.15625 L 97.878906 184.675781 L 77.390625 184.675781 C 76.199219 184.675781 75.230469 185.644531 75.230469 186.835938 L 75.230469 199.054688 C 75.230469 199.101562 75.230469 199.136719 75.234375 199.183594 C 74.390625 198.621094 73.832031 197.660156 73.832031 196.570312 L 73.832031 186.292969 C 73.832031 184.5625 75.238281 183.15625 76.96875 183.15625 Z M 97.878906 183.15625 " fill-opacity="1" fill-rule="nonzero"/><path fill="#ff66c4" d="M 83.847656 191.425781 C 83.847656 193.066406 82.519531 194.394531 80.890625 194.394531 C 79.257812 194.394531 77.933594 193.066406 77.933594 191.425781 C 77.933594 189.796875 79.257812 188.46875 80.890625 188.46875 C 82.519531 188.46875 83.847656 189.796875 83.847656 191.425781 Z M 83.847656 191.425781 " fill-opacity="1" fill-rule="nonzero"/><path fill="#ffffff" d="M 83.851562 191.429688 C 83.851562 191.671875 83.820312 191.914062 83.761719 192.136719 C 83.449219 190.847656 82.277344 189.882812 80.890625 189.882812 C 79.5 189.882812 78.332031 190.847656 78.023438 192.136719 C 77.957031 191.914062 77.929688 191.671875 77.929688 191.429688 C 77.929688 189.792969 79.257812 188.464844 80.890625 188.464844 C 82.519531 188.464844 83.851562 189.792969 83.851562 191.429688 Z M 83.851562 191.429688 " fill-opacity="1" fill-rule="nonzero"/><path fill="#2e186b" d="M 90.558594 219.113281 L 38.03125 219.113281 C 33.726562 219.113281 30.226562 215.613281 30.226562 211.308594 L 30.226562 157.011719 C 30.226562 156.746094 30.445312 156.527344 30.710938 156.527344 C 30.980469 156.527344 31.195312 156.746094 31.195312 157.011719 C 31.195312 161.253906 34.640625 164.703125 38.875 164.703125 L 90.558594 164.703125 C 94.863281 164.703125 98.363281 168.203125 98.363281 172.503906 L 98.363281 211.308594 C 98.363281 215.613281 94.863281 219.113281 90.558594 219.113281 Z M 31.195312 160.996094 L 31.195312 211.308594 C 31.195312 215.078125 34.261719 218.144531 38.03125 218.144531 L 90.558594 218.144531 C 94.328125 218.144531 97.394531 215.078125 97.394531 211.308594 L 97.394531 172.503906 C 97.394531 168.738281 94.328125 165.671875 90.558594 165.671875 L 38.875 165.671875 C 35.539062 165.671875 32.640625 163.773438 31.195312 160.996094 Z M 31.195312 160.996094 " fill-opacity="1" fill-rule="nonzero"/><path fill="#2e186b" d="M 97.878906 200.191406 L 76.96875 200.191406 C 74.972656 200.191406 73.347656 198.566406 73.347656 196.570312 L 73.347656 186.292969 C 73.347656 184.296875 74.972656 182.671875 76.96875 182.671875 L 97.878906 182.671875 C 98.144531 182.671875 98.363281 182.890625 98.363281 183.15625 L 98.363281 199.707031 C 98.363281 199.972656 98.144531 200.191406 97.878906 200.191406 Z M 76.96875 183.644531 C 75.507812 183.644531 74.320312 184.832031 74.320312 186.292969 L 74.320312 196.570312 C 74.320312 198.03125 75.507812 199.222656 76.96875 199.222656 L 97.394531 199.222656 L 97.394531 183.644531 Z M 76.96875 183.644531 " fill-opacity="1" fill-rule="nonzero"/><path fill="#2e186b" d="M 80.890625 194.878906 C 78.992188 194.878906 77.445312 193.332031 77.445312 191.425781 C 77.445312 189.527344 78.992188 187.984375 80.890625 187.984375 C 82.789062 187.984375 84.332031 189.527344 84.332031 191.425781 C 84.332031 193.332031 82.789062 194.878906 80.890625 194.878906 Z M 80.890625 188.953125 C 79.527344 188.953125 78.417969 190.0625 78.417969 191.425781 C 78.417969 192.796875 79.527344 193.910156 80.890625 193.910156 C 82.253906 193.910156 83.363281 192.796875 83.363281 191.425781 C 83.363281 190.0625 82.253906 188.953125 80.890625 188.953125 Z M 80.890625 188.953125 " fill-opacity="1" fill-rule="nonzero"/></svg>