<svg xmlns="http://www.w3.org/2000/svg" xmlns:xlink="http://www.w3.org/1999/xlink" width="400" zoomAndPan="magnify" viewBox="0 0 300 299.999988" height="400" preserveAspectRatio="xMidYMid meet" version="1.0"><defs><clipPath id="45442a5605"><path d="M 200 157 L 270 157 L 270 255.75 L 200 255.75 Z M 200 157 " clip-rule="nonzero"/></clipPath><clipPath id="8b5c5782af"><path d="M 199 157 L 270 157 L 270 255.75 L 199 255.75 Z M 199 157 " clip-rule="nonzero"/></clipPath><clipPath id="51a86024f7"><path d="M 213 214 L 247 214 L 247 255.75 L 213 255.75 Z M 213 214 " clip-rule="nonzero"/></clipPath><clipPath id="dea40e9720"><path d="M 212 214 L 247 214 L 247 255.75 L 212 255.75 Z M 212 214 " clip-rule="nonzero"/></clipPath><clipPath id="f850b9c1ad"><path d="M 51 206 L 106 206 L 106 255.75 L 51 255.75 Z M 51 206 " clip-rule="nonzero"/></clipPath><clipPath id="7b6d9aa96c"><path d="M 51 206 L 107 206 L 107 255.75 L 51 255.75 Z M 51 206 " clip-rule="nonzero"/></clipPath><clipPath id="03edafc52c"><path d="M 46 206 L 101 206 L 101 255.75 L 46 255.75 Z M 46 206 " clip-rule="nonzero"/></clipPath><clipPath id="0b7a27f876"><path d="M 45 206 L 101 206 L 101 255.75 L 45 255.75 Z M 45 206 " clip-rule="nonzero"/></clipPath><clipPath id="b9960f0e95"><path d="M 43.113281 138 L 60 138 L 60 158 L 43.113281 158 Z M 43.113281 138 " clip-rule="nonzero"/></clipPath><clipPath id="46c20c32c2"><path d="M 43.113281 138 L 58 138 L 58 157 L 43.113281 157 Z M 43.113281 138 " clip-rule="nonzero"/></clipPath><clipPath id="2c84620bf7"><path d="M 43.113281 137 L 61 137 L 61 158 L 43.113281 158 Z M 43.113281 137 " clip-rule="nonzero"/></clipPath></defs><path fill="#2e186b" d="M 183.984375 41.4375 C 183.875 41.4375 183.761719 41.398438 183.675781 41.3125 C 183.503906 41.144531 183.5 40.867188 183.667969 40.691406 L 193.0625 31.011719 C 193.234375 30.839844 193.511719 30.835938 193.683594 31.003906 C 193.859375 31.171875 193.863281 31.449219 193.695312 31.625 L 184.296875 41.304688 C 184.210938 41.394531 184.097656 41.4375 183.984375 41.4375 Z M 183.984375 41.4375 " fill-opacity="1" fill-rule="nonzero"/><path fill="#2e186b" d="M 173.929688 42.972656 C 173.820312 42.972656 173.707031 42.933594 173.625 42.847656 C 173.449219 42.679688 173.445312 42.402344 173.613281 42.226562 L 183.007812 32.546875 C 183.179688 32.375 183.457031 32.371094 183.628906 32.539062 C 183.804688 32.707031 183.808594 32.984375 183.640625 33.160156 L 174.246094 42.839844 C 174.160156 42.929688 174.042969 42.972656 173.929688 42.972656 Z M 173.929688 42.972656 " fill-opacity="1" fill-rule="nonzero"/><path fill="#2e186b" d="M 46.664062 192.5 C 46.554688 192.5 46.441406 192.460938 46.355469 192.375 C 46.183594 192.207031 46.179688 191.925781 46.351562 191.753906 L 58.246094 179.605469 C 58.414062 179.433594 58.691406 179.429688 58.867188 179.601562 C 59.039062 179.769531 59.042969 180.046875 58.875 180.222656 L 46.980469 192.371094 C 46.890625 192.457031 46.777344 192.5 46.664062 192.5 Z M 46.664062 192.5 " fill-opacity="1" fill-rule="nonzero"/><path fill="#2e186b" d="M 47.675781 198.070312 C 47.5625 198.070312 47.449219 198.023438 47.363281 197.9375 C 47.195312 197.765625 47.195312 197.484375 47.371094 197.316406 L 53.949219 190.863281 C 54.121094 190.691406 54.402344 190.695312 54.570312 190.867188 C 54.742188 191.042969 54.738281 191.320312 54.566406 191.488281 L 47.984375 197.941406 C 47.898438 198.027344 47.789062 198.070312 47.675781 198.070312 Z M 47.675781 198.070312 " fill-opacity="1" fill-rule="nonzero"/><path fill="#2e186b" d="M 164.171875 249.671875 C 164.058594 249.671875 163.945312 249.628906 163.859375 249.542969 C 163.691406 249.371094 163.691406 249.09375 163.859375 248.921875 L 172.464844 240.320312 C 172.636719 240.148438 172.914062 240.148438 173.085938 240.320312 C 173.257812 240.488281 173.257812 240.769531 173.085938 240.941406 L 164.484375 249.542969 C 164.398438 249.628906 164.285156 249.671875 164.171875 249.671875 Z M 164.171875 249.671875 " fill-opacity="1" fill-rule="nonzero"/><path fill="#2e186b" d="M 164.929688 254.734375 C 164.816406 254.734375 164.703125 254.691406 164.617188 254.601562 C 164.445312 254.429688 164.449219 254.148438 164.625 253.980469 L 180.0625 238.921875 C 180.234375 238.753906 180.515625 238.757812 180.683594 238.929688 C 180.851562 239.105469 180.847656 239.382812 180.675781 239.550781 L 165.238281 254.609375 C 165.152344 254.691406 165.042969 254.734375 164.929688 254.734375 Z M 164.929688 254.734375 " fill-opacity="1" fill-rule="nonzero"/><path fill="#2e186b" d="M 238.867188 53.304688 L 199.800781 53.304688 L 199.800781 233.480469 L 238.867188 233.480469 C 245.421875 233.480469 250.734375 228.167969 250.734375 221.617188 L 250.734375 65.167969 C 250.734375 58.617188 245.421875 53.304688 238.867188 53.304688 Z M 238.867188 53.304688 " fill-opacity="1" fill-rule="nonzero"/><path fill="#2e186b" d="M 238.867188 233.921875 L 199.800781 233.921875 C 199.558594 233.921875 199.363281 233.722656 199.363281 233.480469 L 199.363281 53.304688 C 199.363281 53.0625 199.558594 52.867188 199.800781 52.867188 L 238.867188 52.867188 C 245.652344 52.867188 251.171875 58.386719 251.171875 65.167969 L 251.171875 221.617188 C 251.171875 228.402344 245.652344 233.921875 238.867188 233.921875 Z M 200.242188 233.042969 L 238.867188 233.042969 C 245.167969 233.042969 250.292969 227.917969 250.292969 221.617188 L 250.292969 65.167969 C 250.292969 58.871094 245.167969 53.746094 238.867188 53.746094 L 200.242188 53.746094 Z M 200.242188 233.042969 " fill-opacity="1" fill-rule="nonzero"/><path fill="#ffffff" d="M 240.839844 65.167969 L 240.839844 221.617188 C 240.839844 228.167969 235.527344 233.480469 228.972656 233.480469 L 74.234375 233.480469 C 67.679688 233.480469 62.367188 228.167969 62.367188 221.617188 L 62.367188 65.167969 C 62.367188 58.617188 67.679688 53.304688 74.234375 53.304688 L 228.972656 53.304688 C 235.527344 53.304688 240.839844 58.617188 240.839844 65.167969 Z M 240.839844 65.167969 " fill-opacity="1" fill-rule="nonzero"/><path fill="#ff66c4" d="M 240.839844 65.171875 L 240.839844 89.65625 C 240.839844 83.105469 235.523438 77.792969 228.972656 77.792969 L 74.234375 77.792969 C 67.683594 77.792969 62.367188 83.105469 62.367188 89.65625 L 62.367188 65.171875 C 62.367188 58.617188 67.683594 53.304688 74.234375 53.304688 L 228.972656 53.304688 C 235.523438 53.304688 240.839844 58.617188 240.839844 65.171875 Z M 240.839844 65.171875 " fill-opacity="1" fill-rule="nonzero"/><path fill="#ffffff" d="M 240.839844 65.171875 L 240.839844 70.253906 C 240.839844 63.707031 235.523438 58.386719 228.972656 58.386719 L 74.234375 58.386719 C 67.683594 58.386719 62.367188 63.707031 62.367188 70.253906 L 62.367188 65.171875 C 62.367188 58.617188 67.683594 53.304688 74.234375 53.304688 L 228.972656 53.304688 C 235.523438 53.304688 240.839844 58.617188 240.839844 65.171875 Z M 240.839844 65.171875 " fill-opacity="1" fill-rule="nonzero"/><path fill="#2e186b" d="M 240.839844 90.097656 C 240.59375 90.097656 240.398438 89.898438 240.398438 89.65625 C 240.398438 83.355469 235.273438 78.230469 228.972656 78.230469 L 74.234375 78.230469 C 67.933594 78.230469 62.808594 83.355469 62.808594 89.65625 C 62.808594 89.898438 62.613281 90.097656 62.371094 90.097656 C 62.125 90.097656 61.929688 89.898438 61.929688 89.65625 L 61.929688 65.171875 C 61.929688 58.386719 67.449219 52.867188 74.234375 52.867188 L 182.417969 52.867188 C 182.660156 52.867188 182.859375 53.0625 182.859375 53.304688 C 182.859375 53.546875 182.660156 53.746094 182.417969 53.746094 L 74.234375 53.746094 C 67.933594 53.746094 62.808594 58.871094 62.808594 65.171875 L 62.808594 85.089844 C 64.625 80.558594 69.0625 77.351562 74.234375 77.351562 L 228.972656 77.351562 C 234.144531 77.351562 238.582031 80.558594 240.398438 85.089844 L 240.398438 65.171875 C 240.398438 58.871094 235.273438 53.746094 228.972656 53.746094 L 190.375 53.746094 C 190.132812 53.746094 189.9375 53.546875 189.9375 53.304688 C 189.9375 53.0625 190.132812 52.867188 190.375 52.867188 L 228.972656 52.867188 C 235.757812 52.867188 241.277344 58.386719 241.277344 65.171875 L 241.277344 89.65625 C 241.277344 89.898438 241.082031 90.097656 240.839844 90.097656 Z M 240.839844 90.097656 " fill-opacity="1" fill-rule="nonzero"/><path fill="#2e186b" d="M 90.882812 233.921875 L 74.234375 233.921875 C 67.449219 233.921875 61.929688 228.402344 61.929688 221.617188 L 61.929688 65.167969 C 61.929688 64.925781 62.125 64.730469 62.371094 64.730469 C 62.613281 64.730469 62.808594 64.925781 62.808594 65.167969 L 62.808594 221.617188 C 62.808594 227.917969 67.933594 233.042969 74.234375 233.042969 L 90.882812 233.042969 C 91.125 233.042969 91.320312 233.238281 91.320312 233.480469 C 91.320312 233.722656 91.125 233.921875 90.882812 233.921875 Z M 90.882812 233.921875 " fill-opacity="1" fill-rule="nonzero"/><path fill="#2e186b" d="M 228.972656 233.921875 L 103.703125 233.921875 C 103.460938 233.921875 103.261719 233.722656 103.261719 233.480469 C 103.261719 233.238281 103.460938 233.042969 103.703125 233.042969 L 228.972656 233.042969 C 235.273438 233.042969 240.398438 227.917969 240.398438 221.617188 L 240.398438 65.167969 C 240.398438 58.871094 235.273438 53.746094 228.972656 53.746094 L 192.027344 53.746094 C 191.785156 53.746094 191.589844 53.546875 191.589844 53.304688 C 191.589844 53.0625 191.785156 52.867188 192.027344 52.867188 L 228.972656 52.867188 C 235.757812 52.867188 241.277344 58.386719 241.277344 65.167969 L 241.277344 221.617188 C 241.277344 228.402344 235.757812 233.921875 228.972656 233.921875 Z M 228.972656 233.921875 " fill-opacity="1" fill-rule="nonzero"/><path fill="#2e186b" d="M 182.417969 53.746094 L 74.234375 53.746094 C 73.992188 53.746094 73.792969 53.546875 73.792969 53.304688 C 73.792969 53.0625 73.992188 52.867188 74.234375 52.867188 L 182.417969 52.867188 C 182.660156 52.867188 182.859375 53.0625 182.859375 53.304688 C 182.859375 53.546875 182.660156 53.746094 182.417969 53.746094 Z M 182.417969 53.746094 " fill-opacity="1" fill-rule="nonzero"/><path fill="#2e186b" d="M 83.527344 66.53125 C 83.527344 67.027344 83.429688 67.5 83.242188 67.957031 C 83.054688 68.414062 82.785156 68.816406 82.433594 69.164062 C 82.085938 69.511719 81.683594 69.78125 81.226562 69.972656 C 80.773438 70.160156 80.296875 70.253906 79.804688 70.253906 C 79.308594 70.253906 78.835938 70.160156 78.378906 69.972656 C 77.921875 69.78125 77.519531 69.511719 77.171875 69.164062 C 76.824219 68.816406 76.554688 68.414062 76.363281 67.957031 C 76.175781 67.5 76.082031 67.027344 76.082031 66.53125 C 76.082031 66.039062 76.175781 65.5625 76.363281 65.109375 C 76.554688 64.652344 76.824219 64.25 77.171875 63.902344 C 77.519531 63.550781 77.921875 63.28125 78.378906 63.09375 C 78.835938 62.90625 79.308594 62.808594 79.804688 62.808594 C 80.296875 62.808594 80.773438 62.90625 81.226562 63.09375 C 81.683594 63.28125 82.085938 63.550781 82.433594 63.902344 C 82.785156 64.25 83.054688 64.652344 83.242188 65.109375 C 83.429688 65.5625 83.527344 66.039062 83.527344 66.53125 Z M 83.527344 66.53125 " fill-opacity="1" fill-rule="nonzero"/><path fill="#2e186b" d="M 96.453125 66.53125 C 96.453125 67.027344 96.359375 67.5 96.171875 67.957031 C 95.980469 68.414062 95.714844 68.816406 95.363281 69.164062 C 95.015625 69.511719 94.613281 69.78125 94.15625 69.972656 C 93.699219 70.160156 93.226562 70.253906 92.730469 70.253906 C 92.238281 70.253906 91.765625 70.160156 91.308594 69.972656 C 90.851562 69.78125 90.449219 69.511719 90.101562 69.164062 C 89.75 68.816406 89.484375 68.414062 89.292969 67.957031 C 89.105469 67.5 89.011719 67.027344 89.011719 66.53125 C 89.011719 66.039062 89.105469 65.5625 89.292969 65.109375 C 89.484375 64.652344 89.75 64.25 90.101562 63.902344 C 90.449219 63.550781 90.851562 63.28125 91.308594 63.09375 C 91.765625 62.90625 92.238281 62.808594 92.730469 62.808594 C 93.226562 62.808594 93.699219 62.90625 94.15625 63.09375 C 94.613281 63.28125 95.015625 63.550781 95.363281 63.902344 C 95.714844 64.25 95.980469 64.652344 96.171875 65.109375 C 96.359375 65.5625 96.453125 66.039062 96.453125 66.53125 Z M 96.453125 66.53125 " fill-opacity="1" fill-rule="nonzero"/><path fill="#2e186b" d="M 109.382812 66.53125 C 109.382812 67.027344 109.289062 67.5 109.101562 67.957031 C 108.910156 68.414062 108.640625 68.816406 108.292969 69.164062 C 107.945312 69.511719 107.542969 69.78125 107.085938 69.972656 C 106.628906 70.160156 106.15625 70.253906 105.660156 70.253906 C 105.167969 70.253906 104.691406 70.160156 104.238281 69.972656 C 103.78125 69.78125 103.378906 69.511719 103.03125 69.164062 C 102.679688 68.816406 102.410156 68.414062 102.222656 67.957031 C 102.035156 67.5 101.9375 67.027344 101.9375 66.53125 C 101.9375 66.039062 102.035156 65.5625 102.222656 65.109375 C 102.410156 64.652344 102.679688 64.25 103.03125 63.902344 C 103.378906 63.550781 103.78125 63.28125 104.238281 63.09375 C 104.691406 62.90625 105.167969 62.808594 105.660156 62.808594 C 106.15625 62.808594 106.628906 62.90625 107.085938 63.09375 C 107.542969 63.28125 107.945312 63.550781 108.292969 63.902344 C 108.640625 64.25 108.910156 64.652344 109.101562 65.109375 C 109.289062 65.5625 109.382812 66.039062 109.382812 66.53125 Z M 109.382812 66.53125 " fill-opacity="1" fill-rule="nonzero"/><path fill="#ffffff" d="M 194.089844 55.101562 C 194.28125 55.257812 194.429688 55.460938 194.535156 55.71875 C 194.640625 55.976562 194.699219 56.28125 194.710938 56.632812 C 194.722656 56.984375 194.6875 57.378906 194.609375 57.808594 C 194.527344 58.242188 194.402344 58.703125 194.230469 59.199219 C 194.058594 59.695312 193.847656 60.214844 193.59375 60.753906 C 193.339844 61.292969 193.046875 61.847656 192.71875 62.410156 C 192.390625 62.972656 192.03125 63.539062 191.644531 64.105469 C 191.253906 64.671875 190.84375 65.230469 190.40625 65.777344 C 189.972656 66.324219 189.523438 66.847656 189.058594 67.355469 C 188.59375 67.863281 188.125 68.339844 187.648438 68.785156 C 187.171875 69.230469 186.699219 69.640625 186.230469 70.007812 C 185.761719 70.378906 185.304688 70.703125 184.859375 70.980469 C 184.414062 71.257812 183.992188 71.484375 183.589844 71.660156 C 183.1875 71.835938 182.8125 71.957031 182.464844 72.023438 C 182.121094 72.089844 181.8125 72.101562 181.535156 72.058594 C 181.261719 72.015625 181.027344 71.914062 180.835938 71.761719 C 180.640625 71.609375 180.492188 71.402344 180.386719 71.144531 C 180.28125 70.886719 180.226562 70.582031 180.210938 70.230469 C 180.199219 69.878906 180.234375 69.488281 180.316406 69.054688 C 180.398438 68.625 180.523438 68.160156 180.695312 67.664062 C 180.863281 67.167969 181.078125 66.652344 181.332031 66.113281 C 181.585938 65.570312 181.878906 65.019531 182.203125 64.457031 C 182.53125 63.890625 182.890625 63.324219 183.28125 62.757812 C 183.667969 62.191406 184.082031 61.636719 184.515625 61.089844 C 184.953125 60.542969 185.402344 60.015625 185.867188 59.507812 C 186.332031 59.003906 186.800781 58.527344 187.277344 58.082031 C 187.753906 57.632812 188.226562 57.226562 188.695312 56.855469 C 189.164062 56.488281 189.621094 56.164062 190.066406 55.886719 C 190.507812 55.609375 190.933594 55.382812 191.335938 55.207031 C 191.738281 55.027344 192.113281 54.90625 192.457031 54.839844 C 192.800781 54.773438 193.113281 54.761719 193.386719 54.804688 C 193.660156 54.851562 193.894531 54.949219 194.089844 55.101562 Z M 194.089844 55.101562 " fill-opacity="1" fill-rule="nonzero"/><path fill="#ff66c4" d="M 228.457031 188.515625 L 228.457031 219.089844 C 228.457031 220.855469 227.023438 222.289062 225.257812 222.289062 L 164.902344 222.289062 C 163.132812 222.289062 161.699219 220.855469 161.699219 219.089844 L 161.699219 188.515625 C 161.699219 186.75 163.132812 185.316406 164.902344 185.316406 L 225.257812 185.316406 C 227.023438 185.316406 228.457031 186.75 228.457031 188.515625 Z M 228.457031 188.515625 " fill-opacity="1" fill-rule="nonzero"/><path fill="#ffffff" d="M 228.457031 188.515625 L 228.457031 192.226562 C 228.457031 190.460938 227.023438 189.027344 225.257812 189.027344 L 164.902344 189.027344 C 163.132812 189.027344 161.699219 190.460938 161.699219 192.226562 L 161.699219 188.515625 C 161.699219 186.75 163.132812 185.316406 164.902344 185.316406 L 225.257812 185.316406 C 227.023438 185.316406 228.457031 186.75 228.457031 188.515625 Z M 228.457031 188.515625 " fill-opacity="1" fill-rule="nonzero"/><path fill="#2e186b" d="M 225.257812 222.726562 L 164.902344 222.726562 C 162.894531 222.726562 161.261719 221.09375 161.261719 219.089844 L 161.261719 188.515625 C 161.261719 186.507812 162.894531 184.875 164.902344 184.875 L 225.257812 184.875 C 227.261719 184.875 228.894531 186.507812 228.894531 188.515625 L 228.894531 219.089844 C 228.894531 221.09375 227.261719 222.726562 225.257812 222.726562 Z M 164.902344 185.753906 C 163.378906 185.753906 162.140625 186.992188 162.140625 188.515625 L 162.140625 219.089844 C 162.140625 220.609375 163.378906 221.851562 164.902344 221.851562 L 225.257812 221.851562 C 226.777344 221.851562 228.015625 220.609375 228.015625 219.089844 L 228.015625 188.515625 C 228.015625 186.992188 226.777344 185.753906 225.257812 185.753906 Z M 164.902344 185.753906 " fill-opacity="1" fill-rule="nonzero"/><path fill="#2e186b" d="M 141.503906 188.515625 L 141.503906 219.089844 C 141.503906 220.855469 140.070312 222.289062 138.304688 222.289062 L 77.949219 222.289062 C 76.183594 222.289062 74.75 220.855469 74.75 219.089844 L 74.75 188.515625 C 74.75 186.75 76.183594 185.316406 77.949219 185.316406 L 138.304688 185.316406 C 140.070312 185.316406 141.503906 186.75 141.503906 188.515625 Z M 141.503906 188.515625 " fill-opacity="1" fill-rule="nonzero"/><path fill="#ffffff" d="M 141.503906 188.515625 L 141.503906 192.226562 C 141.503906 190.460938 140.070312 189.027344 138.304688 189.027344 L 77.949219 189.027344 C 76.183594 189.027344 74.75 190.460938 74.75 192.226562 L 74.75 188.515625 C 74.75 186.75 76.183594 185.316406 77.949219 185.316406 L 138.304688 185.316406 C 140.070312 185.316406 141.503906 186.75 141.503906 188.515625 Z M 141.503906 188.515625 " fill-opacity="1" fill-rule="nonzero"/><path fill="#2e186b" d="M 138.304688 222.726562 L 77.949219 222.726562 C 75.941406 222.726562 74.308594 221.09375 74.308594 219.089844 L 74.308594 188.515625 C 74.308594 186.507812 75.941406 184.875 77.949219 184.875 L 138.304688 184.875 C 140.3125 184.875 141.945312 186.507812 141.945312 188.515625 L 141.945312 219.089844 C 141.945312 221.09375 140.3125 222.726562 138.304688 222.726562 Z M 77.949219 185.753906 C 76.425781 185.753906 75.1875 186.992188 75.1875 188.515625 L 75.1875 219.089844 C 75.1875 220.609375 76.425781 221.851562 77.949219 221.851562 L 138.304688 221.851562 C 139.828125 221.851562 141.066406 220.609375 141.066406 219.089844 L 141.066406 188.515625 C 141.066406 186.992188 139.828125 185.753906 138.304688 185.753906 Z M 77.949219 185.753906 " fill-opacity="1" fill-rule="nonzero"/><path fill="#2e186b" d="M 74.75 106.9375 L 74.75 92.859375 C 74.75 91.09375 76.183594 89.660156 77.949219 89.660156 L 223.949219 89.660156 C 225.714844 89.660156 227.144531 91.09375 227.144531 92.859375 L 227.144531 106.9375 C 227.144531 108.703125 225.714844 110.136719 223.949219 110.136719 L 77.949219 110.136719 C 76.183594 110.136719 74.75 108.703125 74.75 106.9375 Z M 74.75 106.9375 " fill-opacity="1" fill-rule="nonzero"/><path fill="#ffffff" d="M 227.144531 92.859375 L 227.144531 96.03125 C 227.144531 94.265625 225.714844 92.832031 223.949219 92.832031 L 77.949219 92.832031 C 76.183594 92.832031 74.75 94.265625 74.75 96.03125 L 74.75 92.859375 C 74.75 91.09375 76.183594 89.660156 77.949219 89.660156 L 223.949219 89.660156 C 225.714844 89.660156 227.144531 91.09375 227.144531 92.859375 Z M 227.144531 92.859375 " fill-opacity="1" fill-rule="nonzero"/><path fill="#2e186b" d="M 223.949219 110.578125 L 77.949219 110.578125 C 75.941406 110.578125 74.308594 108.945312 74.308594 106.9375 L 74.308594 92.859375 C 74.308594 90.851562 75.941406 89.21875 77.949219 89.21875 L 223.949219 89.21875 C 225.953125 89.21875 227.582031 90.851562 227.582031 92.859375 L 227.582031 106.9375 C 227.582031 108.945312 225.953125 110.578125 223.949219 110.578125 Z M 77.949219 90.097656 C 76.425781 90.097656 75.1875 91.335938 75.1875 92.859375 L 75.1875 106.9375 C 75.1875 108.460938 76.425781 109.699219 77.949219 109.699219 L 223.949219 109.699219 C 225.46875 109.699219 226.703125 108.460938 226.703125 106.9375 L 226.703125 92.859375 C 226.703125 91.335938 225.46875 90.097656 223.949219 90.097656 Z M 77.949219 90.097656 " fill-opacity="1" fill-rule="nonzero"/><path fill="#ff66c4" d="M 227.746094 123.625 L 227.746094 171.832031 C 227.746094 173.597656 226.3125 175.03125 224.546875 175.03125 L 77.949219 175.03125 C 76.183594 175.03125 74.75 173.597656 74.75 171.832031 L 74.75 123.625 C 74.75 121.855469 76.183594 120.421875 77.949219 120.421875 L 224.546875 120.421875 C 226.3125 120.421875 227.746094 121.855469 227.746094 123.625 Z M 227.746094 123.625 " fill-opacity="1" fill-rule="nonzero"/><path fill="#ffffff" d="M 227.746094 123.625 L 227.746094 127.179688 C 227.746094 125.414062 226.3125 123.980469 224.546875 123.980469 L 77.949219 123.980469 C 76.183594 123.980469 74.75 125.414062 74.75 127.179688 L 74.75 123.625 C 74.75 121.855469 76.183594 120.421875 77.949219 120.421875 L 224.546875 120.421875 C 226.3125 120.421875 227.746094 121.855469 227.746094 123.625 Z M 227.746094 123.625 " fill-opacity="1" fill-rule="nonzero"/><path fill="#2e186b" d="M 224.546875 175.46875 L 77.949219 175.46875 C 75.945312 175.46875 74.3125 173.835938 74.3125 171.832031 L 74.3125 123.625 C 74.3125 121.617188 75.945312 119.984375 77.949219 119.984375 L 224.546875 119.984375 C 226.554688 119.984375 228.1875 121.617188 228.1875 123.625 L 228.1875 171.832031 C 228.1875 173.835938 226.554688 175.46875 224.546875 175.46875 Z M 77.949219 120.863281 C 76.429688 120.863281 75.1875 122.101562 75.1875 123.625 L 75.1875 171.832031 C 75.1875 173.351562 76.429688 174.589844 77.949219 174.589844 L 224.546875 174.589844 C 226.070312 174.589844 227.308594 173.351562 227.308594 171.832031 L 227.308594 123.625 C 227.308594 122.101562 226.070312 120.863281 224.546875 120.863281 Z M 77.949219 120.863281 " fill-opacity="1" fill-rule="nonzero"/><path fill="#ffffff" d="M 180.269531 165.832031 L 122.234375 165.832031 C 120 165.832031 118.621094 163.671875 119.796875 161.992188 L 139.914062 133.171875 C 140.992188 131.636719 143.46875 131.546875 144.664062 132.996094 L 158.023438 149.136719 C 159.140625 150.492188 161.414062 150.527344 162.589844 149.207031 L 169.167969 141.78125 C 170.527344 140.242188 173.289062 140.601562 174.101562 142.421875 L 182.929688 162.402344 C 183.660156 164.046875 182.28125 165.832031 180.269531 165.832031 Z M 180.269531 165.832031 " fill-opacity="1" fill-rule="nonzero"/><path fill="#ffffff" d="M 167.339844 134.089844 C 167.339844 134.382812 167.304688 134.675781 167.242188 134.960938 C 167.175781 135.25 167.078125 135.53125 166.953125 135.800781 C 166.824219 136.070312 166.667969 136.328125 166.480469 136.574219 C 166.296875 136.816406 166.085938 137.042969 165.851562 137.25 C 165.613281 137.457031 165.359375 137.644531 165.082031 137.804688 C 164.804688 137.96875 164.511719 138.105469 164.203125 138.21875 C 163.894531 138.332031 163.578125 138.414062 163.25 138.472656 C 162.921875 138.53125 162.589844 138.558594 162.257812 138.558594 C 161.925781 138.558594 161.59375 138.53125 161.265625 138.472656 C 160.941406 138.414062 160.621094 138.332031 160.3125 138.21875 C 160.007812 138.105469 159.714844 137.96875 159.4375 137.804688 C 159.160156 137.644531 158.902344 137.457031 158.667969 137.25 C 158.429688 137.042969 158.21875 136.816406 158.035156 136.574219 C 157.847656 136.328125 157.691406 136.070312 157.566406 135.800781 C 157.4375 135.53125 157.339844 135.25 157.277344 134.960938 C 157.210938 134.675781 157.179688 134.382812 157.179688 134.089844 C 157.179688 133.796875 157.210938 133.507812 157.277344 133.21875 C 157.339844 132.929688 157.4375 132.652344 157.566406 132.378906 C 157.691406 132.109375 157.847656 131.851562 158.035156 131.609375 C 158.21875 131.363281 158.429688 131.136719 158.667969 130.929688 C 158.902344 130.722656 159.160156 130.539062 159.4375 130.375 C 159.714844 130.210938 160.007812 130.074219 160.3125 129.960938 C 160.621094 129.847656 160.941406 129.765625 161.265625 129.707031 C 161.59375 129.648438 161.925781 129.621094 162.257812 129.621094 C 162.589844 129.621094 162.921875 129.648438 163.25 129.707031 C 163.578125 129.765625 163.894531 129.847656 164.203125 129.960938 C 164.511719 130.074219 164.804688 130.210938 165.082031 130.375 C 165.359375 130.539062 165.613281 130.722656 165.851562 130.929688 C 166.085938 131.136719 166.296875 131.363281 166.480469 131.609375 C 166.667969 131.851562 166.824219 132.109375 166.953125 132.378906 C 167.078125 132.652344 167.175781 132.929688 167.242188 133.21875 C 167.304688 133.507812 167.339844 133.796875 167.339844 134.089844 Z M 167.339844 134.089844 " fill-opacity="1" fill-rule="nonzero"/><g clip-path="url(#45442a5605)"><path fill="#2e186b" d="M 269.515625 192.402344 C 269.515625 205.574219 262.15625 217.023438 251.328125 222.863281 L 251.328125 253.609375 C 251.328125 255.128906 249.582031 255.988281 248.375 255.066406 L 236.050781 245.597656 C 235.386719 245.09375 234.476562 245.09375 233.816406 245.597656 L 221.492188 255.066406 C 220.28125 255.988281 218.542969 255.128906 218.542969 253.609375 L 218.542969 222.871094 C 207.707031 217.027344 200.347656 205.574219 200.347656 192.402344 C 200.347656 173.300781 215.832031 157.820312 234.933594 157.820312 C 254.03125 157.820312 269.515625 173.300781 269.515625 192.402344 Z M 269.515625 192.402344 " fill-opacity="1" fill-rule="nonzero"/></g><g clip-path="url(#8b5c5782af)"><path fill="#2e186b" d="M 249.488281 255.882812 C 249 255.882812 248.515625 255.726562 248.109375 255.414062 L 235.785156 245.949219 C 235.28125 245.566406 234.582031 245.566406 234.085938 245.949219 L 221.757812 255.414062 C 221.066406 255.945312 220.148438 256.03125 219.367188 255.644531 C 218.585938 255.261719 218.101562 254.480469 218.101562 253.609375 L 218.101562 223.128906 C 206.875 216.96875 199.910156 205.21875 199.910156 192.402344 C 199.910156 173.09375 215.621094 157.382812 234.933594 157.382812 C 254.242188 157.382812 269.953125 173.09375 269.953125 192.402344 C 269.953125 205.214844 262.992188 216.960938 251.765625 223.125 L 251.765625 253.609375 C 251.765625 254.480469 251.28125 255.261719 250.5 255.644531 C 250.175781 255.804688 249.832031 255.882812 249.488281 255.882812 Z M 234.933594 244.785156 C 235.421875 244.785156 235.910156 244.9375 236.316406 245.25 L 248.644531 254.714844 C 249.074219 255.046875 249.621094 255.097656 250.109375 254.859375 C 250.597656 254.617188 250.886719 254.152344 250.886719 253.609375 L 250.886719 222.863281 C 250.886719 222.703125 250.976562 222.554688 251.117188 222.476562 C 262.195312 216.503906 269.074219 204.976562 269.074219 192.402344 C 269.074219 173.578125 253.757812 158.257812 234.933594 158.257812 C 216.105469 158.257812 200.789062 173.578125 200.789062 192.402344 C 200.789062 204.984375 207.671875 216.507812 218.75 222.484375 C 218.894531 222.558594 218.980469 222.707031 218.980469 222.871094 L 218.980469 253.609375 C 218.980469 254.152344 219.269531 254.617188 219.757812 254.859375 C 220.242188 255.097656 220.792969 255.046875 221.226562 254.714844 L 233.550781 245.25 C 233.957031 244.941406 234.445312 244.785156 234.933594 244.785156 Z M 234.933594 244.785156 " fill-opacity="1" fill-rule="nonzero"/></g><g clip-path="url(#51a86024f7)"><path fill="#ff66c4" d="M 246.195312 214.972656 L 246.195312 253.609375 C 246.195312 255.128906 244.449219 255.988281 243.246094 255.066406 L 230.921875 245.597656 C 230.257812 245.09375 229.34375 245.09375 228.6875 245.597656 L 216.363281 255.066406 C 215.152344 255.988281 213.410156 255.128906 213.410156 253.609375 L 213.410156 214.972656 Z M 246.195312 214.972656 " fill-opacity="1" fill-rule="nonzero"/><path fill="#ffffff" d="M 246.195312 214.972656 L 246.195312 217.363281 L 216.0625 217.363281 L 216.0625 255.25 C 214.886719 255.851562 213.410156 255.007812 213.410156 253.609375 L 213.410156 214.972656 Z M 246.195312 214.972656 " fill-opacity="1" fill-rule="nonzero"/></g><path fill="#ffffff" d="M 246.195312 214.972656 L 246.195312 225.308594 C 241.347656 227.910156 235.800781 229.378906 229.914062 229.378906 C 223.9375 229.378906 218.3125 227.863281 213.410156 225.191406 L 213.410156 214.972656 Z M 246.195312 214.972656 " fill-opacity="1" fill-rule="nonzero"/><g clip-path="url(#dea40e9720)"><path fill="#2e186b" d="M 244.359375 255.886719 C 243.867188 255.886719 243.382812 255.726562 242.976562 255.414062 L 230.652344 245.949219 C 230.152344 245.566406 229.453125 245.566406 228.953125 245.949219 L 216.628906 255.414062 C 215.9375 255.945312 215.019531 256.035156 214.238281 255.648438 C 213.457031 255.261719 212.972656 254.480469 212.972656 253.609375 L 212.972656 214.972656 C 212.972656 214.730469 213.167969 214.53125 213.410156 214.53125 L 246.195312 214.53125 C 246.4375 214.53125 246.632812 214.730469 246.632812 214.972656 L 246.632812 253.609375 C 246.632812 254.480469 246.148438 255.261719 245.367188 255.648438 C 245.042969 255.808594 244.699219 255.886719 244.359375 255.886719 Z M 243.511719 254.714844 C 243.941406 255.046875 244.488281 255.101562 244.976562 254.859375 C 245.464844 254.621094 245.753906 254.152344 245.753906 253.609375 L 245.753906 215.410156 L 213.851562 215.410156 L 213.851562 253.609375 C 213.851562 254.152344 214.140625 254.621094 214.628906 254.859375 C 215.113281 255.101562 215.664062 255.046875 216.09375 254.714844 L 228.417969 245.25 C 229.230469 244.625 230.371094 244.625 231.1875 245.25 Z M 243.511719 254.714844 " fill-opacity="1" fill-rule="nonzero"/></g><path fill="#2e186b" d="M 229.800781 245.660156 C 229.558594 245.660156 229.363281 245.464844 229.363281 245.222656 L 229.363281 214.972656 C 229.363281 214.730469 229.558594 214.53125 229.800781 214.53125 C 230.042969 214.53125 230.242188 214.730469 230.242188 214.972656 L 230.242188 245.222656 C 230.242188 245.464844 230.042969 245.660156 229.800781 245.660156 Z M 229.800781 245.660156 " fill-opacity="1" fill-rule="nonzero"/><path fill="#ffffff" d="M 264.386719 192.40625 C 264.386719 193.539062 264.332031 194.667969 264.21875 195.796875 C 264.109375 196.921875 263.941406 198.042969 263.722656 199.152344 C 263.5 200.261719 263.226562 201.359375 262.898438 202.445312 C 262.570312 203.527344 262.1875 204.59375 261.753906 205.640625 C 261.320312 206.6875 260.835938 207.710938 260.304688 208.707031 C 259.769531 209.707031 259.1875 210.675781 258.558594 211.621094 C 257.929688 212.5625 257.253906 213.46875 256.535156 214.34375 C 255.816406 215.222656 255.058594 216.058594 254.257812 216.859375 C 253.457031 217.660156 252.617188 218.421875 251.742188 219.140625 C 250.867188 219.859375 249.957031 220.53125 249.015625 221.160156 C 248.074219 221.789062 247.105469 222.371094 246.105469 222.90625 C 245.105469 223.441406 244.082031 223.921875 243.039062 224.355469 C 241.992188 224.789062 240.925781 225.171875 239.839844 225.5 C 238.757812 225.828125 237.660156 226.105469 236.550781 226.324219 C 235.4375 226.546875 234.320312 226.710938 233.191406 226.824219 C 232.066406 226.933594 230.933594 226.988281 229.800781 226.988281 C 228.667969 226.988281 227.539062 226.933594 226.414062 226.824219 C 225.285156 226.710938 224.164062 226.546875 223.054688 226.324219 C 221.945312 226.105469 220.847656 225.828125 219.761719 225.5 C 218.679688 225.171875 217.613281 224.789062 216.566406 224.355469 C 215.519531 223.921875 214.496094 223.441406 213.5 222.90625 C 212.5 222.371094 211.53125 221.789062 210.585938 221.160156 C 209.644531 220.53125 208.738281 219.859375 207.863281 219.140625 C 206.984375 218.421875 206.148438 217.660156 205.347656 216.859375 C 204.546875 216.058594 203.785156 215.222656 203.066406 214.34375 C 202.347656 213.46875 201.675781 212.5625 201.046875 211.621094 C 200.417969 210.675781 199.835938 209.707031 199.300781 208.707031 C 198.765625 207.710938 198.285156 206.6875 197.851562 205.640625 C 197.417969 204.59375 197.035156 203.527344 196.707031 202.445312 C 196.378906 201.359375 196.101562 200.261719 195.882812 199.152344 C 195.660156 198.042969 195.496094 196.921875 195.382812 195.796875 C 195.273438 194.667969 195.21875 193.539062 195.21875 192.40625 C 195.21875 191.273438 195.273438 190.140625 195.382812 189.015625 C 195.496094 187.886719 195.660156 186.769531 195.882812 185.65625 C 196.101562 184.546875 196.378906 183.449219 196.707031 182.367188 C 197.035156 181.28125 197.417969 180.214844 197.851562 179.171875 C 198.285156 178.125 198.765625 177.101562 199.300781 176.101562 C 199.835938 175.101562 200.417969 174.132812 201.046875 173.191406 C 201.675781 172.25 202.347656 171.339844 203.066406 170.464844 C 203.785156 169.589844 204.546875 168.75 205.347656 167.949219 C 206.148438 167.148438 206.984375 166.390625 207.863281 165.671875 C 208.738281 164.953125 209.644531 164.277344 210.585938 163.648438 C 211.53125 163.019531 212.5 162.4375 213.5 161.902344 C 214.496094 161.371094 215.519531 160.886719 216.566406 160.453125 C 217.613281 160.019531 218.679688 159.636719 219.761719 159.308594 C 220.847656 158.980469 221.945312 158.707031 223.054688 158.484375 C 224.164062 158.265625 225.285156 158.097656 226.414062 157.988281 C 227.539062 157.875 228.667969 157.820312 229.800781 157.820312 C 230.933594 157.820312 232.066406 157.875 233.191406 157.988281 C 234.320312 158.097656 235.4375 158.265625 236.550781 158.484375 C 237.660156 158.707031 238.757812 158.980469 239.839844 159.308594 C 240.925781 159.636719 241.992188 160.019531 243.039062 160.453125 C 244.082031 160.886719 245.105469 161.371094 246.105469 161.902344 C 247.105469 162.4375 248.074219 163.019531 249.015625 163.648438 C 249.957031 164.277344 250.867188 164.953125 251.742188 165.671875 C 252.617188 166.390625 253.457031 167.148438 254.257812 167.949219 C 255.058594 168.75 255.816406 169.589844 256.535156 170.464844 C 257.253906 171.339844 257.929688 172.25 258.558594 173.191406 C 259.1875 174.132812 259.769531 175.101562 260.304688 176.101562 C 260.835938 177.101562 261.320312 178.125 261.753906 179.171875 C 262.1875 180.214844 262.570312 181.28125 262.898438 182.367188 C 263.226562 183.449219 263.5 184.546875 263.722656 185.65625 C 263.941406 186.769531 264.109375 187.886719 264.21875 189.015625 C 264.332031 190.140625 264.386719 191.273438 264.386719 192.40625 Z M 264.386719 192.40625 " fill-opacity="1" fill-rule="nonzero"/><path fill="#2e186b" d="M 197.871094 194.351562 C 197.871094 205.222656 202.886719 214.921875 210.730469 221.261719 C 201.382812 215.070312 195.21875 204.453125 195.21875 192.402344 C 195.21875 173.300781 210.699219 157.820312 229.800781 157.820312 C 238.039062 157.820312 245.605469 160.703125 251.542969 165.507812 C 246.074219 161.878906 239.511719 159.769531 232.453125 159.769531 C 213.351562 159.769531 197.871094 175.25 197.871094 194.351562 Z M 197.871094 194.351562 " fill-opacity="1" fill-rule="nonzero"/><path fill="#2e186b" d="M 254.078125 192.40625 C 254.078125 193.199219 254.039062 193.992188 253.960938 194.785156 C 253.882812 195.574219 253.765625 196.359375 253.609375 197.140625 C 253.453125 197.921875 253.261719 198.691406 253.03125 199.453125 C 252.800781 200.210938 252.53125 200.960938 252.230469 201.695312 C 251.925781 202.429688 251.585938 203.148438 251.210938 203.847656 C 250.835938 204.550781 250.425781 205.230469 249.984375 205.890625 C 249.542969 206.550781 249.070312 207.191406 248.566406 207.804688 C 248.0625 208.417969 247.527344 209.007812 246.964844 209.570312 C 246.40625 210.132812 245.816406 210.664062 245.203125 211.167969 C 244.585938 211.671875 243.949219 212.148438 243.289062 212.589844 C 242.628906 213.03125 241.945312 213.4375 241.246094 213.8125 C 240.542969 214.1875 239.824219 214.527344 239.089844 214.832031 C 238.355469 215.136719 237.609375 215.402344 236.847656 215.632812 C 236.085938 215.863281 235.316406 216.058594 234.539062 216.214844 C 233.757812 216.367188 232.972656 216.484375 232.179688 216.5625 C 231.390625 216.640625 230.597656 216.679688 229.800781 216.679688 C 229.007812 216.679688 228.214844 216.640625 227.421875 216.5625 C 226.632812 216.484375 225.847656 216.367188 225.066406 216.214844 C 224.285156 216.058594 223.515625 215.863281 222.753906 215.632812 C 221.996094 215.402344 221.246094 215.136719 220.511719 214.832031 C 219.777344 214.527344 219.058594 214.1875 218.359375 213.8125 C 217.65625 213.4375 216.976562 213.03125 216.316406 212.589844 C 215.65625 212.148438 215.015625 211.671875 214.402344 211.167969 C 213.789062 210.664062 213.199219 210.132812 212.636719 209.570312 C 212.074219 209.007812 211.542969 208.417969 211.039062 207.804688 C 210.535156 207.191406 210.058594 206.550781 209.617188 205.890625 C 209.175781 205.230469 208.769531 204.550781 208.394531 203.847656 C 208.019531 203.148438 207.679688 202.429688 207.375 201.695312 C 207.070312 200.960938 206.804688 200.210938 206.574219 199.453125 C 206.34375 198.691406 206.148438 197.921875 205.996094 197.140625 C 205.839844 196.359375 205.722656 195.574219 205.644531 194.785156 C 205.566406 193.992188 205.527344 193.199219 205.527344 192.40625 C 205.527344 191.609375 205.566406 190.816406 205.644531 190.027344 C 205.722656 189.234375 205.839844 188.449219 205.996094 187.667969 C 206.148438 186.890625 206.34375 186.121094 206.574219 185.359375 C 206.804688 184.597656 207.070312 183.851562 207.375 183.117188 C 207.679688 182.382812 208.019531 181.664062 208.394531 180.960938 C 208.769531 180.261719 209.175781 179.578125 209.617188 178.917969 C 210.058594 178.257812 210.535156 177.621094 211.039062 177.003906 C 211.542969 176.390625 212.074219 175.800781 212.636719 175.242188 C 213.199219 174.679688 213.789062 174.144531 214.402344 173.640625 C 215.015625 173.136719 215.65625 172.664062 216.316406 172.222656 C 216.976562 171.78125 217.65625 171.371094 218.359375 170.996094 C 219.058594 170.621094 219.777344 170.28125 220.511719 169.980469 C 221.246094 169.675781 221.996094 169.40625 222.753906 169.175781 C 223.515625 168.945312 224.285156 168.753906 225.066406 168.597656 C 225.847656 168.441406 226.632812 168.324219 227.421875 168.246094 C 228.214844 168.167969 229.007812 168.128906 229.800781 168.128906 C 230.597656 168.128906 231.390625 168.167969 232.179688 168.246094 C 232.972656 168.324219 233.757812 168.441406 234.539062 168.597656 C 235.316406 168.753906 236.085938 168.945312 236.847656 169.175781 C 237.609375 169.40625 238.355469 169.675781 239.089844 169.980469 C 239.824219 170.28125 240.542969 170.621094 241.246094 170.996094 C 241.945312 171.371094 242.628906 171.78125 243.289062 172.222656 C 243.949219 172.664062 244.585938 173.136719 245.203125 173.640625 C 245.816406 174.144531 246.40625 174.679688 246.964844 175.242188 C 247.527344 175.800781 248.0625 176.390625 248.566406 177.003906 C 249.070312 177.621094 249.542969 178.257812 249.984375 178.917969 C 250.425781 179.578125 250.835938 180.261719 251.210938 180.960938 C 251.585938 181.664062 251.925781 182.382812 252.230469 183.117188 C 252.53125 183.851562 252.800781 184.597656 253.03125 185.359375 C 253.261719 186.121094 253.453125 186.890625 253.609375 187.667969 C 253.765625 188.449219 253.882812 189.234375 253.960938 190.027344 C 254.039062 190.816406 254.078125 191.609375 254.078125 192.40625 Z M 254.078125 192.40625 " fill-opacity="1" fill-rule="nonzero"/><path fill="#ffffff" d="M 208.003906 194.542969 C 208.003906 201.296875 210.765625 207.40625 215.222656 211.8125 C 209.332031 207.382812 205.527344 200.335938 205.527344 192.402344 C 205.527344 179 216.394531 168.128906 229.800781 168.128906 C 236.449219 168.128906 242.472656 170.804688 246.855469 175.132812 C 242.792969 172.078125 237.75 170.269531 232.277344 170.269531 C 218.871094 170.269531 208.003906 181.140625 208.003906 194.542969 Z M 208.003906 194.542969 " fill-opacity="1" fill-rule="nonzero"/><path fill="#2e186b" d="M 238.957031 195.910156 C 238.546875 196.308594 238.363281 196.878906 238.457031 197.445312 L 239.417969 203.042969 C 239.660156 204.457031 238.175781 205.539062 236.902344 204.867188 L 231.878906 202.226562 C 231.375 201.960938 230.773438 201.960938 230.265625 202.226562 L 225.238281 204.867188 C 223.96875 205.539062 222.484375 204.457031 222.722656 203.042969 L 223.683594 197.445312 C 223.78125 196.878906 223.59375 196.308594 223.183594 195.910156 L 219.121094 191.949219 C 218.089844 190.945312 218.660156 189.199219 220.082031 188.992188 L 225.699219 188.175781 C 226.265625 188.09375 226.75 187.738281 227.007812 187.226562 L 229.515625 182.136719 C 230.152344 180.847656 231.988281 180.847656 232.625 182.136719 L 235.140625 187.226562 C 235.390625 187.738281 235.878906 188.09375 236.441406 188.175781 L 242.0625 188.992188 C 243.484375 189.199219 244.050781 190.945312 243.023438 191.949219 Z M 238.957031 195.910156 " fill-opacity="1" fill-rule="nonzero"/><path fill="#2e186b" d="M 237.714844 205.507812 C 237.367188 205.507812 237.019531 205.425781 236.699219 205.253906 L 231.675781 202.613281 C 231.296875 202.417969 230.847656 202.417969 230.46875 202.613281 L 225.441406 205.253906 C 224.710938 205.640625 223.835938 205.582031 223.160156 205.09375 C 222.484375 204.605469 222.152344 203.789062 222.289062 202.96875 L 223.25 197.371094 C 223.320312 196.949219 223.183594 196.519531 222.878906 196.222656 L 218.8125 192.261719 C 218.21875 191.679688 218.007812 190.828125 218.261719 190.035156 C 218.519531 189.242188 219.191406 188.675781 220.015625 188.554688 L 225.636719 187.742188 C 226.058594 187.679688 226.421875 187.414062 226.613281 187.03125 L 229.121094 181.941406 C 229.492188 181.195312 230.238281 180.730469 231.070312 180.730469 C 231.90625 180.730469 232.652344 181.195312 233.019531 181.941406 L 235.53125 187.03125 C 235.722656 187.414062 236.082031 187.679688 236.503906 187.742188 L 242.125 188.554688 C 242.949219 188.675781 243.621094 189.242188 243.878906 190.035156 C 244.136719 190.824219 243.925781 191.679688 243.332031 192.261719 L 239.261719 196.222656 C 238.957031 196.519531 238.820312 196.949219 238.890625 197.371094 L 239.851562 202.96875 C 239.992188 203.789062 239.660156 204.601562 238.984375 205.09375 C 238.605469 205.367188 238.160156 205.507812 237.714844 205.507812 Z M 231.074219 201.585938 C 231.421875 201.585938 231.765625 201.671875 232.082031 201.835938 L 237.109375 204.476562 C 237.554688 204.710938 238.0625 204.675781 238.46875 204.382812 C 238.878906 204.085938 239.070312 203.613281 238.984375 203.117188 L 238.023438 197.519531 C 237.90625 196.8125 238.136719 196.09375 238.648438 195.59375 L 242.71875 191.632812 C 243.078125 191.28125 243.199219 190.785156 243.042969 190.304688 C 242.886719 189.828125 242.496094 189.5 242 189.425781 L 236.378906 188.609375 C 235.671875 188.507812 235.058594 188.0625 234.746094 187.417969 L 232.230469 182.328125 C 232.007812 181.878906 231.574219 181.609375 231.070312 181.609375 C 230.566406 181.609375 230.132812 181.878906 229.910156 182.328125 L 227.398438 187.421875 C 227.082031 188.0625 226.46875 188.507812 225.761719 188.609375 L 220.144531 189.425781 C 219.644531 189.5 219.253906 189.828125 219.097656 190.304688 C 218.945312 190.785156 219.066406 191.28125 219.425781 191.632812 L 223.492188 195.59375 C 224.003906 196.09375 224.238281 196.8125 224.117188 197.519531 L 223.15625 203.117188 C 223.074219 203.613281 223.265625 204.085938 223.675781 204.382812 C 224.082031 204.675781 224.589844 204.710938 225.03125 204.476562 L 230.0625 201.835938 C 230.378906 201.671875 230.726562 201.585938 231.074219 201.585938 Z M 238.957031 195.910156 L 238.960938 195.910156 Z M 238.957031 195.910156 " fill-opacity="1" fill-rule="nonzero"/><path fill="#2e186b" d="M 229.800781 227.429688 C 210.488281 227.429688 194.777344 211.71875 194.777344 192.40625 C 194.777344 173.09375 210.488281 157.382812 229.800781 157.382812 C 249.113281 157.382812 264.824219 173.09375 264.824219 192.40625 C 264.824219 211.71875 249.113281 227.429688 229.800781 227.429688 Z M 229.800781 158.257812 C 210.972656 158.257812 195.65625 173.578125 195.65625 192.40625 C 195.65625 211.234375 210.972656 226.550781 229.800781 226.550781 C 248.628906 226.550781 263.949219 211.234375 263.949219 192.40625 C 263.949219 173.578125 248.628906 158.257812 229.800781 158.257812 Z M 229.800781 158.257812 " fill-opacity="1" fill-rule="nonzero"/><path fill="#2e186b" d="M 229.800781 217.117188 C 216.175781 217.117188 205.089844 206.03125 205.089844 192.40625 C 205.089844 191.578125 205.128906 190.746094 205.210938 189.925781 C 205.234375 189.6875 205.449219 189.507812 205.691406 189.535156 C 205.933594 189.558594 206.109375 189.773438 206.085938 190.015625 C 206.007812 190.804688 205.96875 191.609375 205.96875 192.40625 C 205.96875 205.546875 216.660156 216.238281 229.800781 216.238281 C 242.945312 216.238281 253.636719 205.546875 253.636719 192.40625 C 253.636719 179.261719 242.945312 168.570312 229.800781 168.570312 C 220.898438 168.570312 212.800781 173.476562 208.667969 181.371094 C 208.558594 181.585938 208.292969 181.667969 208.078125 181.558594 C 207.859375 181.445312 207.777344 181.179688 207.890625 180.964844 C 212.175781 172.777344 220.570312 167.691406 229.800781 167.691406 C 243.429688 167.691406 254.515625 178.777344 254.515625 192.40625 C 254.515625 206.03125 243.429688 217.117188 229.800781 217.117188 Z M 229.800781 217.117188 " fill-opacity="1" fill-rule="nonzero"/><path fill="#ffffff" d="M 238.058594 194.082031 C 237.628906 194.5 237.4375 195.101562 237.535156 195.691406 L 238.542969 201.550781 C 238.796875 203.03125 237.238281 204.164062 235.910156 203.460938 L 230.648438 200.699219 C 230.117188 200.417969 229.488281 200.417969 228.957031 200.699219 L 223.695312 203.460938 C 222.363281 204.164062 220.808594 203.03125 221.0625 201.550781 L 222.066406 195.691406 C 222.167969 195.101562 221.972656 194.5 221.542969 194.082031 L 217.289062 189.933594 C 216.210938 188.882812 216.804688 187.054688 218.292969 186.839844 L 224.175781 185.984375 C 224.769531 185.898438 225.277344 185.527344 225.546875 184.992188 L 228.175781 179.660156 C 228.839844 178.3125 230.765625 178.3125 231.429688 179.660156 L 234.0625 184.992188 C 234.324219 185.527344 234.835938 185.898438 235.425781 185.984375 L 241.308594 186.839844 C 242.796875 187.054688 243.394531 188.882812 242.316406 189.933594 Z M 238.058594 194.082031 " fill-opacity="1" fill-rule="nonzero"/><path fill="#2e186b" d="M 231.355469 179.53125 C 230.910156 179.664062 230.507812 179.972656 230.273438 180.453125 L 227.648438 185.789062 C 227.375 186.324219 226.867188 186.695312 226.277344 186.78125 L 220.394531 187.632812 C 218.902344 187.851562 218.308594 189.683594 219.390625 190.730469 L 223.644531 194.882812 C 224.074219 195.296875 224.265625 195.894531 224.167969 196.488281 L 223.164062 202.347656 C 223.082031 202.808594 223.179688 203.238281 223.390625 203.582031 C 222.140625 203.996094 220.828125 202.917969 221.0625 201.550781 L 222.066406 195.691406 C 222.164062 195.097656 221.976562 194.5 221.546875 194.085938 L 217.289062 189.9375 C 216.207031 188.886719 216.808594 187.054688 218.292969 186.835938 L 224.175781 185.984375 C 224.765625 185.898438 225.28125 185.527344 225.546875 184.992188 L 228.171875 179.660156 C 228.820312 178.355469 230.640625 178.3125 231.355469 179.53125 Z M 231.355469 179.53125 " fill-opacity="1" fill-rule="nonzero"/><path fill="#2e186b" d="M 236.757812 204.113281 C 236.398438 204.113281 236.035156 204.027344 235.703125 203.847656 L 230.445312 201.085938 C 230.042969 200.875 229.5625 200.875 229.164062 201.085938 L 223.898438 203.851562 C 223.136719 204.253906 222.230469 204.1875 221.53125 203.683594 C 220.828125 203.175781 220.484375 202.332031 220.628906 201.476562 L 221.632812 195.617188 C 221.710938 195.167969 221.5625 194.714844 221.238281 194.398438 L 216.980469 190.25 C 216.363281 189.644531 216.144531 188.761719 216.410156 187.9375 C 216.675781 187.117188 217.375 186.527344 218.230469 186.402344 L 224.113281 185.550781 C 224.5625 185.484375 224.949219 185.203125 225.152344 184.796875 L 227.78125 179.464844 C 228.160156 178.691406 228.9375 178.210938 229.800781 178.210938 C 230.667969 178.210938 231.441406 178.691406 231.824219 179.464844 L 234.453125 184.796875 C 234.65625 185.203125 235.039062 185.484375 235.488281 185.550781 L 241.371094 186.402344 C 242.226562 186.527344 242.925781 187.117188 243.191406 187.9375 C 243.460938 188.757812 243.242188 189.644531 242.625 190.25 L 238.363281 194.398438 C 238.039062 194.714844 237.894531 195.167969 237.96875 195.617188 L 238.972656 201.476562 C 239.121094 202.328125 238.777344 203.171875 238.078125 203.683594 C 237.683594 203.96875 237.222656 204.113281 236.757812 204.113281 Z M 229.804688 200.050781 C 230.164062 200.050781 230.523438 200.136719 230.851562 200.308594 L 236.113281 203.074219 C 236.585938 203.324219 237.128906 203.285156 237.5625 202.96875 C 237.996094 202.65625 238.199219 202.152344 238.109375 201.625 L 237.101562 195.765625 C 236.980469 195.03125 237.222656 194.285156 237.75 193.769531 L 242.011719 189.621094 C 242.394531 189.246094 242.523438 188.71875 242.355469 188.210938 C 242.191406 187.699219 241.777344 187.351562 241.246094 187.273438 L 235.363281 186.417969 C 234.628906 186.3125 233.992188 185.851562 233.667969 185.183594 L 231.035156 179.855469 C 230.796875 179.375 230.335938 179.089844 229.800781 179.089844 C 229.265625 179.089844 228.804688 179.375 228.566406 179.855469 L 225.9375 185.1875 C 225.609375 185.851562 224.972656 186.3125 224.238281 186.417969 L 218.355469 187.273438 C 217.828125 187.351562 217.410156 187.699219 217.246094 188.210938 C 217.082031 188.71875 217.210938 189.246094 217.59375 189.621094 L 221.851562 193.769531 C 222.382812 194.285156 222.625 195.03125 222.5 195.765625 L 221.492188 201.625 C 221.40625 202.152344 221.609375 202.65625 222.046875 202.972656 C 222.476562 203.285156 223.015625 203.320312 223.488281 203.074219 L 228.753906 200.308594 C 229.082031 200.136719 229.441406 200.050781 229.804688 200.050781 Z M 238.058594 194.082031 L 238.0625 194.082031 Z M 238.058594 194.082031 " fill-opacity="1" fill-rule="nonzero"/><g clip-path="url(#f850b9c1ad)"><path fill="#2e186b" d="M 51.8125 206.632812 L 105.957031 206.632812 L 105.957031 255.109375 L 51.8125 255.109375 Z M 51.8125 206.632812 " fill-opacity="1" fill-rule="nonzero"/></g><g clip-path="url(#7b6d9aa96c)"><path fill="#2e186b" d="M 105.957031 255.546875 L 51.816406 255.546875 C 51.570312 255.546875 51.375 255.351562 51.375 255.109375 L 51.375 206.632812 C 51.375 206.390625 51.570312 206.195312 51.816406 206.195312 L 105.957031 206.195312 C 106.199219 206.195312 106.394531 206.390625 106.394531 206.632812 L 106.394531 255.109375 C 106.394531 255.351562 106.199219 255.546875 105.957031 255.546875 Z M 52.253906 254.667969 L 105.515625 254.667969 L 105.515625 207.074219 L 52.253906 207.074219 Z M 52.253906 254.667969 " fill-opacity="1" fill-rule="nonzero"/></g><g clip-path="url(#03edafc52c)"><path fill="#ffffff" d="M 46.304688 206.632812 L 100.445312 206.632812 L 100.445312 255.109375 L 46.304688 255.109375 Z M 46.304688 206.632812 " fill-opacity="1" fill-rule="nonzero"/></g><g clip-path="url(#0b7a27f876)"><path fill="#2e186b" d="M 100.449219 255.550781 L 46.300781 255.550781 C 46.058594 255.550781 45.863281 255.351562 45.863281 255.109375 L 45.863281 223.171875 C 45.863281 222.929688 46.058594 222.734375 46.300781 222.734375 C 46.542969 222.734375 46.742188 222.929688 46.742188 223.171875 L 46.742188 254.671875 L 100.007812 254.671875 L 100.007812 207.074219 L 46.742188 207.074219 L 46.742188 212.589844 C 46.742188 212.832031 46.542969 213.027344 46.300781 213.027344 C 46.058594 213.027344 45.863281 212.832031 45.863281 212.589844 L 45.863281 206.632812 C 45.863281 206.390625 46.058594 206.195312 46.300781 206.195312 L 100.449219 206.195312 C 100.691406 206.195312 100.886719 206.390625 100.886719 206.632812 L 100.886719 255.109375 C 100.886719 255.351562 100.691406 255.550781 100.449219 255.550781 Z M 100.449219 255.550781 " fill-opacity="1" fill-rule="nonzero"/></g><path fill="#2e186b" d="M 94.136719 234.484375 L 94.136719 244.847656 C 94.136719 245.664062 93.476562 246.324219 92.660156 246.324219 L 88.632812 246.324219 C 87.816406 246.324219 87.15625 245.664062 87.15625 244.847656 L 87.15625 234.484375 C 87.15625 233.667969 87.816406 233.007812 88.632812 233.007812 L 92.660156 233.007812 C 93.476562 233.007812 94.136719 233.667969 94.136719 234.484375 Z M 94.136719 234.484375 " fill-opacity="1" fill-rule="nonzero"/><path fill="#2e186b" d="M 82.625 222.648438 L 82.625 244.847656 C 82.625 245.664062 81.964844 246.324219 81.148438 246.324219 L 77.117188 246.324219 C 76.300781 246.324219 75.640625 245.664062 75.640625 244.847656 L 75.640625 222.648438 C 75.640625 221.832031 76.300781 221.171875 77.117188 221.171875 L 81.148438 221.171875 C 81.964844 221.171875 82.625 221.832031 82.625 222.648438 Z M 82.625 222.648438 " fill-opacity="1" fill-rule="nonzero"/><path fill="#2e186b" d="M 59.597656 227.742188 L 59.597656 244.847656 C 59.597656 245.664062 58.933594 246.324219 58.117188 246.324219 L 54.089844 246.324219 C 53.273438 246.324219 52.613281 245.664062 52.613281 244.847656 L 52.613281 227.742188 C 52.613281 226.929688 53.273438 226.265625 54.089844 226.265625 L 58.117188 226.265625 C 58.933594 226.265625 59.597656 226.929688 59.597656 227.742188 Z M 59.597656 227.742188 " fill-opacity="1" fill-rule="nonzero"/><path fill="#2e186b" d="M 71.109375 216.890625 L 71.109375 244.847656 C 71.109375 245.664062 70.449219 246.324219 69.632812 246.324219 L 65.605469 246.324219 C 64.789062 246.324219 64.128906 245.664062 64.128906 244.847656 L 64.128906 216.890625 C 64.128906 216.078125 64.789062 215.414062 65.605469 215.414062 L 69.632812 215.414062 C 70.449219 215.414062 71.109375 216.078125 71.109375 216.890625 Z M 71.109375 216.890625 " fill-opacity="1" fill-rule="nonzero"/><path fill="#ff66c4" d="M 94.136719 242.542969 L 94.136719 244.847656 C 94.136719 245.664062 93.476562 246.324219 92.660156 246.324219 L 88.632812 246.324219 C 87.816406 246.324219 87.15625 245.664062 87.15625 244.847656 L 87.15625 242.542969 C 87.15625 241.726562 87.816406 241.066406 88.632812 241.066406 L 92.660156 241.066406 C 93.476562 241.066406 94.136719 241.726562 94.136719 242.542969 Z M 94.136719 242.542969 " fill-opacity="1" fill-rule="nonzero"/><path fill="#ff66c4" d="M 82.625 230.703125 L 82.625 244.847656 C 82.625 245.664062 81.964844 246.324219 81.148438 246.324219 L 77.117188 246.324219 C 76.300781 246.324219 75.640625 245.664062 75.640625 244.847656 L 75.640625 230.703125 C 75.640625 229.890625 76.300781 229.226562 77.117188 229.226562 L 81.148438 229.226562 C 81.964844 229.226562 82.625 229.890625 82.625 230.703125 Z M 82.625 230.703125 " fill-opacity="1" fill-rule="nonzero"/><path fill="#ff66c4" d="M 59.597656 235.800781 L 59.597656 244.847656 C 59.597656 245.664062 58.933594 246.324219 58.117188 246.324219 L 54.089844 246.324219 C 53.273438 246.324219 52.613281 245.664062 52.613281 244.847656 L 52.613281 235.800781 C 52.613281 234.984375 53.273438 234.324219 54.089844 234.324219 L 58.117188 234.324219 C 58.933594 234.324219 59.597656 234.984375 59.597656 235.800781 Z M 59.597656 235.800781 " fill-opacity="1" fill-rule="nonzero"/><path fill="#ff66c4" d="M 71.109375 224.949219 L 71.109375 244.847656 C 71.109375 245.664062 70.449219 246.324219 69.632812 246.324219 L 65.605469 246.324219 C 64.789062 246.324219 64.128906 245.664062 64.128906 244.847656 L 64.128906 224.949219 C 64.128906 224.132812 64.789062 223.472656 65.605469 223.472656 L 69.632812 223.472656 C 70.449219 223.472656 71.109375 224.132812 71.109375 224.949219 Z M 71.109375 224.949219 " fill-opacity="1" fill-rule="nonzero"/><path fill="#ffffff" d="M 86.515625 119.441406 C 86.515625 119.984375 86.488281 120.527344 86.4375 121.066406 C 86.382812 121.605469 86.304688 122.140625 86.199219 122.671875 C 86.09375 123.203125 85.960938 123.730469 85.804688 124.25 C 85.644531 124.769531 85.464844 125.277344 85.257812 125.777344 C 85.046875 126.28125 84.816406 126.769531 84.5625 127.25 C 84.304688 127.726562 84.027344 128.191406 83.726562 128.640625 C 83.425781 129.09375 83.101562 129.527344 82.757812 129.945312 C 82.414062 130.367188 82.050781 130.769531 81.667969 131.152344 C 81.28125 131.535156 80.882812 131.898438 80.460938 132.242188 C 80.042969 132.585938 79.609375 132.910156 79.15625 133.210938 C 78.707031 133.511719 78.242188 133.789062 77.761719 134.046875 C 77.285156 134.300781 76.796875 134.53125 76.292969 134.742188 C 75.792969 134.949219 75.285156 135.128906 74.765625 135.289062 C 74.246094 135.445312 73.71875 135.578125 73.1875 135.683594 C 72.65625 135.789062 72.121094 135.867188 71.582031 135.921875 C 71.042969 135.972656 70.5 136 69.957031 136 C 69.414062 136 68.875 135.972656 68.335938 135.921875 C 67.796875 135.867188 67.257812 135.789062 66.726562 135.683594 C 66.195312 135.578125 65.671875 135.445312 65.152344 135.289062 C 64.632812 135.128906 64.121094 134.949219 63.621094 134.742188 C 63.121094 134.53125 62.628906 134.300781 62.152344 134.046875 C 61.675781 133.789062 61.210938 133.511719 60.757812 133.210938 C 60.308594 132.910156 59.871094 132.585938 59.453125 132.242188 C 59.035156 131.898438 58.632812 131.535156 58.25 131.152344 C 57.867188 130.769531 57.503906 130.367188 57.15625 129.945312 C 56.8125 129.527344 56.492188 129.09375 56.191406 128.640625 C 55.890625 128.191406 55.609375 127.726562 55.355469 127.25 C 55.097656 126.769531 54.867188 126.28125 54.660156 125.777344 C 54.453125 125.277344 54.269531 124.769531 54.113281 124.25 C 53.953125 123.730469 53.824219 123.203125 53.71875 122.671875 C 53.613281 122.140625 53.53125 121.605469 53.480469 121.066406 C 53.425781 120.527344 53.398438 119.984375 53.398438 119.441406 C 53.398438 118.898438 53.425781 118.359375 53.480469 117.820312 C 53.53125 117.28125 53.613281 116.742188 53.71875 116.210938 C 53.824219 115.679688 53.953125 115.15625 54.113281 114.636719 C 54.269531 114.117188 54.453125 113.605469 54.660156 113.105469 C 54.867188 112.605469 55.097656 112.113281 55.355469 111.636719 C 55.609375 111.160156 55.890625 110.695312 56.191406 110.242188 C 56.492188 109.792969 56.8125 109.355469 57.15625 108.9375 C 57.503906 108.519531 57.867188 108.117188 58.25 107.734375 C 58.632812 107.351562 59.035156 106.988281 59.453125 106.640625 C 59.871094 106.296875 60.308594 105.976562 60.757812 105.675781 C 61.210938 105.375 61.675781 105.09375 62.152344 104.839844 C 62.628906 104.582031 63.121094 104.351562 63.621094 104.144531 C 64.121094 103.9375 64.632812 103.753906 65.152344 103.597656 C 65.671875 103.441406 66.195312 103.308594 66.726562 103.203125 C 67.257812 103.097656 67.796875 103.015625 68.335938 102.964844 C 68.875 102.910156 69.414062 102.882812 69.957031 102.882812 C 70.5 102.882812 71.042969 102.910156 71.582031 102.964844 C 72.121094 103.015625 72.65625 103.097656 73.1875 103.203125 C 73.71875 103.308594 74.246094 103.441406 74.765625 103.597656 C 75.285156 103.753906 75.792969 103.9375 76.292969 104.144531 C 76.796875 104.351562 77.285156 104.582031 77.761719 104.839844 C 78.242188 105.09375 78.707031 105.375 79.15625 105.675781 C 79.609375 105.976562 80.042969 106.296875 80.460938 106.640625 C 80.882812 106.988281 81.28125 107.351562 81.667969 107.734375 C 82.050781 108.117188 82.414062 108.519531 82.757812 108.9375 C 83.101562 109.355469 83.425781 109.792969 83.726562 110.242188 C 84.027344 110.695312 84.304688 111.160156 84.5625 111.636719 C 84.816406 112.113281 85.046875 112.605469 85.257812 113.105469 C 85.464844 113.605469 85.644531 114.117188 85.804688 114.636719 C 85.960938 115.15625 86.09375 115.679688 86.199219 116.210938 C 86.304688 116.742188 86.382812 117.28125 86.4375 117.820312 C 86.488281 118.359375 86.515625 118.898438 86.515625 119.441406 Z M 86.515625 119.441406 " fill-opacity="1" fill-rule="nonzero"/><path fill="#2e186b" d="M 83.871094 128.417969 C 78.914062 136.101562 68.667969 138.3125 60.980469 133.359375 C 58.164062 131.542969 56.082031 129.011719 54.816406 126.15625 C 55.957031 127.652344 57.363281 128.980469 59.035156 130.054688 C 66.714844 135.011719 76.964844 132.800781 81.921875 125.117188 C 85.058594 120.25 85.324219 114.359375 83.148438 109.433594 C 87.242188 114.820312 87.75 122.402344 83.871094 128.417969 Z M 83.871094 128.417969 " fill-opacity="1" fill-rule="nonzero"/><path fill="#2e186b" d="M 69.929688 136.4375 C 66.777344 136.4375 63.585938 135.558594 60.742188 133.726562 C 56.929688 131.265625 54.300781 127.464844 53.34375 123.027344 C 52.382812 118.589844 53.210938 114.042969 55.675781 110.226562 C 60.753906 102.351562 71.296875 100.078125 79.171875 105.160156 C 87.046875 110.238281 89.320312 120.78125 84.242188 128.65625 C 80.996094 133.691406 75.515625 136.4375 69.929688 136.4375 Z M 69.988281 103.316406 C 68.847656 103.316406 67.699219 103.4375 66.558594 103.6875 C 62.347656 104.59375 58.746094 107.085938 56.414062 110.703125 C 54.078125 114.324219 53.292969 118.632812 54.203125 122.84375 C 55.109375 127.050781 57.601562 130.652344 61.21875 132.988281 C 68.6875 137.804688 78.6875 135.648438 83.503906 128.179688 C 88.320312 120.710938 86.164062 110.714844 78.695312 105.898438 C 76.058594 104.195312 73.054688 103.316406 69.988281 103.316406 Z M 69.988281 103.316406 " fill-opacity="1" fill-rule="nonzero"/><path fill="#2e186b" d="M 57.074219 139.882812 C 56.992188 139.882812 56.910156 139.863281 56.835938 139.8125 C 56.632812 139.683594 56.574219 139.410156 56.703125 139.207031 L 60.613281 133.121094 C 60.742188 132.914062 61.015625 132.855469 61.21875 132.988281 C 61.421875 133.117188 61.484375 133.390625 61.351562 133.59375 L 57.441406 139.683594 C 57.359375 139.8125 57.21875 139.882812 57.074219 139.882812 Z M 57.074219 139.882812 " fill-opacity="1" fill-rule="nonzero"/><g clip-path="url(#b9960f0e95)"><path fill="#ff66c4" d="M 59.320312 143.242188 L 50.851562 156.371094 C 50.257812 157.289062 49.039062 157.558594 48.121094 156.964844 L 44.804688 154.824219 C 43.882812 154.230469 43.625 153.011719 44.21875 152.09375 L 52.6875 138.964844 C 53.277344 138.050781 54.496094 137.78125 55.414062 138.375 L 58.730469 140.515625 C 59.652344 141.109375 59.910156 142.328125 59.320312 143.242188 Z M 59.320312 143.242188 " fill-opacity="1" fill-rule="nonzero"/></g><g clip-path="url(#46c20c32c2)"><path fill="#ffffff" d="M 46.648438 156.011719 L 44.804688 154.824219 C 43.886719 154.230469 43.628906 153.011719 44.222656 152.089844 L 52.6875 138.960938 C 53.28125 138.046875 54.496094 137.78125 55.417969 138.375 L 57.257812 139.5625 C 56.335938 138.96875 55.121094 139.234375 54.53125 140.148438 L 46.0625 153.277344 C 45.46875 154.199219 45.726562 155.417969 46.648438 156.011719 Z M 46.648438 156.011719 " fill-opacity="1" fill-rule="nonzero"/></g><g clip-path="url(#2c84620bf7)"><path fill="#2e186b" d="M 49.1875 157.71875 C 48.726562 157.71875 48.277344 157.589844 47.882812 157.332031 L 44.566406 155.195312 C 43.449219 154.472656 43.128906 152.976562 43.851562 151.855469 L 52.320312 138.726562 C 53.039062 137.609375 54.535156 137.285156 55.652344 138.007812 L 58.96875 140.144531 C 59.511719 140.496094 59.886719 141.035156 60.023438 141.664062 C 60.15625 142.292969 60.039062 142.9375 59.6875 143.480469 L 51.222656 156.609375 C 50.871094 157.152344 50.332031 157.527344 49.703125 157.664062 C 49.53125 157.703125 49.359375 157.71875 49.1875 157.71875 Z M 54.347656 138.5 C 53.84375 138.5 53.351562 138.746094 53.058594 139.203125 L 44.589844 152.328125 C 44.128906 153.042969 44.332031 153.996094 45.042969 154.457031 L 48.359375 156.59375 C 49.070312 157.054688 50.023438 156.84375 50.484375 156.132812 L 58.949219 143.003906 C 59.171875 142.660156 59.25 142.25 59.164062 141.851562 C 59.078125 141.449219 58.839844 141.105469 58.492188 140.882812 L 55.175781 138.746094 C 54.921875 138.578125 54.632812 138.5 54.347656 138.5 Z M 54.347656 138.5 " fill-opacity="1" fill-rule="nonzero"/></g><path fill="#2e186b" d="M 258.203125 30.726562 C 252.054688 30.726562 247.070312 35.710938 247.070312 41.859375 C 247.070312 43.898438 247.617188 45.804688 248.574219 47.449219 L 255.628906 47.449219 L 255.628906 52.695312 C 256.457031 52.890625 257.316406 52.992188 258.203125 52.992188 C 264.351562 52.992188 269.335938 48.011719 269.335938 41.859375 C 269.335938 35.710938 264.351562 30.726562 258.203125 30.726562 Z M 258.203125 30.726562 " fill-opacity="1" fill-rule="nonzero"/><path fill="#2e186b" d="M 258.203125 53.433594 C 257.300781 53.433594 256.402344 53.328125 255.527344 53.121094 C 255.332031 53.074219 255.191406 52.898438 255.191406 52.695312 L 255.191406 47.886719 L 248.574219 47.886719 C 248.417969 47.886719 248.273438 47.804688 248.195312 47.667969 C 247.171875 45.910156 246.632812 43.902344 246.632812 41.859375 C 246.632812 35.480469 251.824219 30.289062 258.203125 30.289062 C 264.585938 30.289062 269.773438 35.480469 269.773438 41.859375 C 269.773438 48.242188 264.585938 53.433594 258.203125 53.433594 Z M 256.070312 52.339844 C 256.769531 52.484375 257.484375 52.554688 258.203125 52.554688 C 264.097656 52.554688 268.898438 47.757812 268.898438 41.859375 C 268.898438 35.964844 264.097656 31.167969 258.203125 31.167969 C 252.308594 31.167969 247.511719 35.964844 247.511719 41.859375 C 247.511719 43.664062 247.964844 45.4375 248.832031 47.007812 L 255.628906 47.007812 C 255.871094 47.007812 256.070312 47.207031 256.070312 47.449219 Z M 256.070312 52.339844 " fill-opacity="1" fill-rule="nonzero"/><path fill="#ffffff" d="M 267.335938 41.859375 C 267.335938 48.011719 262.351562 52.992188 256.203125 52.992188 C 254.816406 52.992188 253.492188 52.742188 252.269531 52.277344 C 251.695312 53.371094 250.457031 54.019531 249.175781 53.789062 C 247.59375 53.507812 246.542969 51.992188 246.828125 50.410156 C 246.933594 49.824219 247.207031 49.3125 247.589844 48.914062 C 246.015625 46.992188 245.070312 44.535156 245.070312 41.859375 C 245.070312 35.710938 250.054688 30.726562 256.203125 30.726562 C 262.351562 30.726562 267.335938 35.710938 267.335938 41.859375 Z M 267.335938 41.859375 " fill-opacity="1" fill-rule="nonzero"/><path fill="#2e186b" d="M 249.699219 54.277344 C 249.5 54.277344 249.300781 54.257812 249.101562 54.222656 C 248.21875 54.066406 247.453125 53.574219 246.941406 52.839844 C 246.429688 52.105469 246.234375 51.214844 246.394531 50.332031 C 246.488281 49.808594 246.703125 49.320312 247.019531 48.902344 C 245.476562 46.890625 244.628906 44.40625 244.628906 41.859375 C 244.628906 35.480469 249.820312 30.289062 256.203125 30.289062 C 262.582031 30.289062 267.773438 35.480469 267.773438 41.859375 C 267.773438 48.242188 262.582031 53.433594 256.203125 53.433594 C 254.917969 53.433594 253.660156 53.226562 252.457031 52.8125 C 251.835938 53.734375 250.800781 54.277344 249.699219 54.277344 Z M 256.203125 31.167969 C 250.304688 31.167969 245.507812 35.964844 245.507812 41.859375 C 245.507812 44.324219 246.367188 46.730469 247.929688 48.632812 C 248.070312 48.804688 248.058594 49.054688 247.90625 49.214844 C 247.570312 49.566406 247.347656 50.007812 247.257812 50.488281 C 247.140625 51.136719 247.285156 51.792969 247.664062 52.335938 C 248.039062 52.878906 248.605469 53.242188 249.253906 53.355469 C 250.320312 53.550781 251.375 53.03125 251.878906 52.074219 C 251.980469 51.875 252.214844 51.789062 252.425781 51.867188 C 253.628906 52.324219 254.898438 52.554688 256.203125 52.554688 C 262.097656 52.554688 266.894531 47.757812 266.894531 41.859375 C 266.894531 35.964844 262.097656 31.167969 256.203125 31.167969 Z M 256.203125 31.167969 " fill-opacity="1" fill-rule="nonzero"/><path fill="#2e186b" d="M 253.613281 41.632812 C 253.464844 41.632812 253.324219 41.558594 253.238281 41.425781 L 251.527344 38.640625 C 251.460938 38.535156 251.441406 38.40625 251.476562 38.289062 C 251.511719 38.167969 251.597656 38.070312 251.707031 38.015625 L 254.652344 36.59375 C 254.871094 36.488281 255.132812 36.578125 255.238281 36.796875 C 255.34375 37.015625 255.253906 37.277344 255.035156 37.382812 L 252.527344 38.59375 L 253.988281 40.964844 C 254.113281 41.171875 254.050781 41.441406 253.84375 41.570312 C 253.773438 41.613281 253.691406 41.632812 253.613281 41.632812 Z M 253.613281 41.632812 " fill-opacity="1" fill-rule="nonzero"/><path fill="#2e186b" d="M 257.5625 48.015625 C 257.398438 48.015625 257.242188 47.921875 257.164062 47.765625 C 257.058594 47.546875 257.152344 47.285156 257.371094 47.179688 L 259.875 45.96875 L 258.417969 43.601562 C 258.289062 43.394531 258.351562 43.121094 258.558594 42.996094 C 258.765625 42.867188 259.039062 42.933594 259.164062 43.140625 L 260.878906 45.921875 C 260.945312 46.027344 260.960938 46.15625 260.925781 46.277344 C 260.890625 46.394531 260.808594 46.496094 260.695312 46.546875 L 257.753906 47.972656 C 257.691406 48 257.625 48.015625 257.5625 48.015625 Z M 257.5625 48.015625 " fill-opacity="1" fill-rule="nonzero"/><path fill="#2e186b" d="M 252.960938 48.070312 C 252.882812 48.070312 252.804688 48.050781 252.734375 48.003906 C 252.523438 47.878906 252.460938 47.609375 252.585938 47.402344 L 259.066406 36.707031 C 259.195312 36.5 259.464844 36.433594 259.671875 36.558594 C 259.878906 36.683594 259.945312 36.953125 259.820312 37.160156 L 253.335938 47.859375 C 253.253906 47.996094 253.109375 48.070312 252.960938 48.070312 Z M 252.960938 48.070312 " fill-opacity="1" fill-rule="nonzero"/><path fill="#ffffff" d="M 66.382812 32.421875 L 66.382812 49.671875 C 66.382812 50.761719 65.503906 51.640625 64.414062 51.640625 L 46.550781 51.640625 C 45.464844 51.640625 44.582031 50.761719 44.582031 49.671875 L 44.582031 32.421875 C 44.582031 31.335938 45.464844 30.453125 46.550781 30.453125 L 64.414062 30.453125 C 65.503906 30.453125 66.382812 31.335938 66.382812 32.421875 Z M 66.382812 32.421875 " fill-opacity="1" fill-rule="nonzero"/><path fill="#ff66c4" d="M 66.382812 34.25 L 66.382812 32.421875 C 66.382812 31.335938 65.503906 30.453125 64.414062 30.453125 L 46.550781 30.453125 C 45.464844 30.453125 44.582031 31.335938 44.582031 32.421875 L 44.582031 34.25 Z M 66.382812 34.25 " fill-opacity="1" fill-rule="nonzero"/><path fill="#2e186b" d="M 64.414062 52.082031 L 62.28125 52.082031 C 62.039062 52.082031 61.84375 51.882812 61.84375 51.640625 C 61.84375 51.398438 62.039062 51.203125 62.28125 51.203125 L 64.414062 51.203125 C 65.257812 51.203125 65.945312 50.515625 65.945312 49.671875 L 65.945312 32.421875 C 65.945312 31.578125 65.257812 30.894531 64.414062 30.894531 L 46.550781 30.894531 C 45.707031 30.894531 45.019531 31.578125 45.019531 32.421875 L 45.019531 49.671875 C 45.019531 50.515625 45.707031 51.203125 46.550781 51.203125 L 58.484375 51.203125 C 58.726562 51.203125 58.921875 51.398438 58.921875 51.640625 C 58.921875 51.882812 58.726562 52.082031 58.484375 52.082031 L 46.550781 52.082031 C 45.222656 52.082031 44.140625 51 44.140625 49.671875 L 44.140625 32.421875 C 44.140625 31.09375 45.222656 30.015625 46.550781 30.015625 L 64.414062 30.015625 C 65.742188 30.015625 66.824219 31.09375 66.824219 32.421875 L 66.824219 49.671875 C 66.824219 51 65.742188 52.082031 64.414062 52.082031 Z M 64.414062 52.082031 " fill-opacity="1" fill-rule="nonzero"/><path fill="#2e186b" d="M 59.222656 37.566406 L 59.222656 38.785156 L 55.777344 38.785156 L 55.777344 47.796875 L 54.367188 47.796875 L 54.367188 38.785156 L 50.921875 38.785156 L 50.921875 37.566406 Z M 59.222656 37.566406 " fill-opacity="1" fill-rule="nonzero"/><path fill="#2e186b" d="M 258.714844 75.320312 L 252.574219 75.320312 L 252.574219 96.03125 L 258.714844 96.03125 C 261.574219 96.03125 264.164062 94.875 266.039062 93 C 267.914062 91.125 269.070312 88.535156 269.070312 85.675781 C 269.070312 79.957031 264.4375 75.320312 258.714844 75.320312 Z M 258.714844 75.320312 " fill-opacity="1" fill-rule="nonzero"/><path fill="#2e186b" d="M 258.714844 96.472656 L 252.574219 96.472656 C 252.332031 96.472656 252.132812 96.273438 252.132812 96.03125 L 252.132812 75.320312 C 252.132812 75.078125 252.332031 74.882812 252.574219 74.882812 L 258.714844 74.882812 C 264.667969 74.882812 269.507812 79.722656 269.507812 85.675781 C 269.507812 88.5625 268.386719 91.273438 266.351562 93.3125 C 264.3125 95.347656 261.601562 96.472656 258.714844 96.472656 Z M 253.011719 95.59375 L 258.714844 95.59375 C 261.367188 95.59375 263.855469 94.5625 265.726562 92.691406 C 267.601562 90.816406 268.632812 88.328125 268.632812 85.675781 C 268.632812 80.207031 264.183594 75.761719 258.714844 75.761719 L 253.011719 75.761719 Z M 253.011719 95.59375 " fill-opacity="1" fill-rule="nonzero"/><path fill="#ffffff" d="M 263.371094 85.675781 C 263.371094 88.535156 262.214844 91.125 260.339844 93 C 258.46875 94.875 255.878906 96.03125 253.015625 96.03125 L 218.890625 96.03125 C 213.167969 96.03125 208.527344 91.398438 208.527344 85.675781 C 208.527344 82.816406 209.691406 80.226562 211.566406 78.351562 C 213.4375 76.476562 216.027344 75.320312 218.890625 75.320312 L 253.015625 75.320312 C 258.738281 75.320312 263.371094 79.957031 263.371094 85.675781 Z M 263.371094 85.675781 " fill-opacity="1" fill-rule="nonzero"/><path fill="#ff66c4" d="M 230.429688 85.675781 C 230.429688 88.535156 229.273438 91.125 227.398438 93 C 225.523438 94.875 222.933594 96.03125 220.074219 96.03125 L 218.890625 96.03125 C 213.167969 96.03125 208.527344 91.398438 208.527344 85.675781 C 208.527344 82.816406 209.691406 80.226562 211.566406 78.351562 C 213.4375 76.476562 216.027344 75.320312 218.890625 75.320312 L 220.074219 75.320312 C 225.792969 75.320312 230.429688 79.957031 230.429688 85.675781 Z M 230.429688 85.675781 " fill-opacity="1" fill-rule="nonzero"/><path fill="#2e186b" d="M 253.015625 96.472656 L 218.890625 96.472656 C 212.933594 96.472656 208.089844 91.628906 208.089844 85.675781 C 208.089844 82.792969 209.214844 80.082031 211.253906 78.042969 C 213.292969 76.003906 216.003906 74.882812 218.890625 74.882812 L 253.015625 74.882812 C 258.96875 74.882812 263.8125 79.722656 263.8125 85.675781 C 263.8125 88.5625 262.6875 91.273438 260.652344 93.3125 C 258.613281 95.347656 255.902344 96.472656 253.015625 96.472656 Z M 218.890625 75.761719 C 216.238281 75.761719 213.746094 76.789062 211.875 78.664062 C 210 80.539062 208.96875 83.027344 208.96875 85.675781 C 208.96875 91.144531 213.417969 95.59375 218.890625 95.59375 L 253.015625 95.59375 C 255.667969 95.59375 258.160156 94.5625 260.03125 92.691406 C 261.902344 90.816406 262.933594 88.328125 262.933594 85.675781 C 262.933594 80.207031 258.484375 75.761719 253.015625 75.761719 Z M 218.890625 75.761719 " fill-opacity="1" fill-rule="nonzero"/><path fill="#ffffff" d="M 218.570312 89.03125 C 217.433594 89.03125 216.363281 88.585938 215.558594 87.78125 C 214.753906 86.976562 214.308594 85.90625 214.308594 84.769531 C 214.308594 83.632812 214.753906 82.5625 215.558594 81.757812 C 216.363281 80.949219 217.433594 80.507812 218.570312 80.507812 C 219.710938 80.507812 220.78125 80.949219 221.585938 81.757812 C 223.246094 83.417969 223.246094 86.121094 221.585938 87.78125 C 220.78125 88.585938 219.710938 89.03125 218.570312 89.03125 Z M 218.570312 81.386719 C 217.667969 81.386719 216.820312 81.738281 216.179688 82.378906 C 215.539062 83.015625 215.1875 83.867188 215.1875 84.769531 C 215.1875 85.671875 215.539062 86.523438 216.179688 87.160156 C 216.820312 87.800781 217.667969 88.152344 218.570312 88.152344 C 219.476562 88.152344 220.324219 87.800781 220.964844 87.160156 C 222.28125 85.84375 222.28125 83.695312 220.964844 82.378906 C 220.324219 81.738281 219.476562 81.386719 218.570312 81.386719 Z M 218.570312 81.386719 " fill-opacity="1" fill-rule="nonzero"/><path fill="#ffffff" d="M 224.109375 90.746094 C 223.996094 90.746094 223.882812 90.703125 223.796875 90.617188 L 220.964844 87.78125 C 220.792969 87.609375 220.792969 87.332031 220.964844 87.160156 C 221.136719 86.988281 221.414062 86.988281 221.585938 87.160156 L 224.417969 89.996094 C 224.589844 90.167969 224.589844 90.445312 224.417969 90.617188 C 224.332031 90.703125 224.222656 90.746094 224.109375 90.746094 Z M 224.109375 90.746094 " fill-opacity="1" fill-rule="nonzero"/></svg>